<svg width="300" height="200" viewBox="0 0 300 200" fill="none" xmlns="http://www.w3.org/2000/svg">
<path d="M0 4C0 1.79086 1.79086 0 4 0H296C298.209 0 300 1.79086 300 4V200H0V4Z" fill="#001C27"/>
<rect y="32" width="150" height="29" rx="2" fill="#0D4059" fill-opacity="0.35"/>
<path d="M10.7891 42.6172H11.25L13.9219 53.3672L20.3359 42.6328H20.8125L14.0156 54H13.6875L10.7891 42.6172ZM10.6641 42.625H11.0859L10.0703 48.5078L9.125 54H8.70312L10.6641 42.625ZM20.5312 42.625H20.9531L18.9922 54H18.5703L19.5156 48.5078L20.5312 42.625ZM27.2266 52.4141L27.9766 48.0469C28.0599 47.5677 28.0208 47.1615 27.8594 46.8281C27.7031 46.4948 27.4557 46.2422 27.1172 46.0703C26.7786 45.8984 26.375 45.8125 25.9062 45.8125C25.474 45.8125 25.0469 45.8932 24.625 46.0547C24.2083 46.2109 23.8438 46.4427 23.5312 46.75C23.2188 47.0521 23.0104 47.4245 22.9062 47.8672L22.4844 47.8516C22.5625 47.4609 22.7109 47.1146 22.9297 46.8125C23.1536 46.5052 23.4245 46.2474 23.7422 46.0391C24.0599 45.8307 24.4036 45.6719 24.7734 45.5625C25.1484 45.4479 25.526 45.3906 25.9062 45.3906C26.4479 45.3906 26.9219 45.4974 27.3281 45.7109C27.7344 45.9193 28.0339 46.224 28.2266 46.625C28.4245 47.0208 28.4792 47.5 28.3906 48.0625L27.6641 52.2969C27.6172 52.5625 27.5807 52.8333 27.5547 53.1094C27.5339 53.3854 27.5469 53.6589 27.5938 53.9297L27.5859 54H27.1094C27.0885 53.7344 27.0911 53.4688 27.1172 53.2031C27.1432 52.9375 27.1797 52.6745 27.2266 52.4141ZM27.9453 49.2812L27.9062 49.7109H25.7969C25.4323 49.7161 25.0469 49.7552 24.6406 49.8281C24.2344 49.8958 23.8438 50.013 23.4688 50.1797C23.0938 50.3411 22.7708 50.5625 22.5 50.8438C22.2344 51.1198 22.0599 51.4688 21.9766 51.8906C21.9089 52.2656 21.9505 52.5911 22.1016 52.8672C22.2526 53.1432 22.474 53.3568 22.7656 53.5078C23.0573 53.6589 23.3776 53.737 23.7266 53.7422C24.2839 53.7474 24.7995 53.651 25.2734 53.4531C25.7526 53.25 26.1823 52.9714 26.5625 52.6172C26.9427 52.2578 27.2656 51.8411 27.5312 51.3672L27.6641 51.7734C27.4766 52.138 27.2448 52.4688 26.9688 52.7656C26.6927 53.0625 26.3828 53.3151 26.0391 53.5234C25.6953 53.7266 25.3281 53.8828 24.9375 53.9922C24.5521 54.1016 24.151 54.1562 23.7344 54.1562C23.2865 54.151 22.8854 54.0573 22.5312 53.875C22.1771 53.6875 21.9089 53.4219 21.7266 53.0781C21.5443 52.7344 21.4896 52.3281 21.5625 51.8594C21.6406 51.375 21.8229 50.9688 22.1094 50.6406C22.3958 50.3125 22.7422 50.0495 23.1484 49.8516C23.5599 49.6536 23.9948 49.5104 24.4531 49.4219C24.9115 49.3333 25.349 49.2865 25.7656 49.2812H27.9453ZM32.875 53.7344C33.3646 53.7344 33.8125 53.6406 34.2188 53.4531C34.6302 53.2656 34.9792 53 35.2656 52.6562C35.5521 52.3125 35.7604 51.9089 35.8906 51.4453H36.3125C36.1875 51.987 35.9609 52.4609 35.6328 52.8672C35.3047 53.2734 34.9036 53.5911 34.4297 53.8203C33.9557 54.0443 33.4401 54.1562 32.8828 54.1562C32.2943 54.1562 31.8047 54.0312 31.4141 53.7812C31.0286 53.5312 30.7318 53.2005 30.5234 52.7891C30.3151 52.3776 30.1823 51.9245 30.125 51.4297C30.0677 50.9297 30.0755 50.4323 30.1484 49.9375L30.1953 49.6094C30.2786 49.0885 30.4219 48.5781 30.625 48.0781C30.8333 47.5781 31.1016 47.1276 31.4297 46.7266C31.7578 46.3203 32.1484 45.9974 32.6016 45.7578C33.0599 45.513 33.5807 45.3906 34.1641 45.3906C34.7422 45.3906 35.2344 45.5208 35.6406 45.7812C36.0521 46.0365 36.3594 46.3854 36.5625 46.8281C36.7656 47.2708 36.8464 47.7734 36.8047 48.3359H36.3828C36.4245 47.8568 36.362 47.4271 36.1953 47.0469C36.0339 46.6667 35.7786 46.3672 35.4297 46.1484C35.0859 45.9245 34.6667 45.8125 34.1719 45.8125C33.6406 45.8125 33.1719 45.9219 32.7656 46.1406C32.3594 46.3594 32.0104 46.651 31.7188 47.0156C31.4323 47.3802 31.1979 47.7891 31.0156 48.2422C30.8333 48.6901 30.7031 49.1458 30.625 49.6094L30.5703 49.9375C30.5026 50.375 30.4844 50.8177 30.5156 51.2656C30.5521 51.7083 30.6536 52.1172 30.8203 52.4922C30.987 52.862 31.237 53.1615 31.5703 53.3906C31.9089 53.6146 32.3438 53.7292 32.875 53.7344ZM40.375 42L38.3047 54H37.8828L39.9531 42H40.375ZM39.0938 49.0469L38.9375 48.5938C39.0625 48.1823 39.2396 47.7865 39.4688 47.4062C39.7031 47.026 39.9792 46.6849 40.2969 46.3828C40.6198 46.0807 40.9792 45.8411 41.375 45.6641C41.7708 45.487 42.1979 45.3958 42.6562 45.3906C43.1354 45.3906 43.526 45.474 43.8281 45.6406C44.1354 45.8073 44.3672 46.0391 44.5234 46.3359C44.6849 46.6276 44.7812 46.9635 44.8125 47.3438C44.8438 47.7188 44.8281 48.1146 44.7656 48.5312L43.8203 54H43.3984L44.3438 48.5312C44.4219 48.0573 44.4323 47.612 44.375 47.1953C44.3177 46.7786 44.1536 46.4427 43.8828 46.1875C43.612 45.9271 43.1979 45.7995 42.6406 45.8047C42.1979 45.8099 41.7865 45.9062 41.4062 46.0938C41.026 46.2812 40.6823 46.5312 40.375 46.8438C40.0677 47.151 39.8047 47.4974 39.5859 47.8828C39.3672 48.263 39.2031 48.651 39.0938 49.0469ZM48.3594 45.5469L46.9062 54H46.4844L47.9375 45.5469H48.3594ZM48.1875 42.8906C48.2031 42.7865 48.2578 42.6901 48.3516 42.6016C48.4505 42.513 48.5547 42.4688 48.6641 42.4688C48.7839 42.4688 48.8802 42.5156 48.9531 42.6094C49.0312 42.7031 49.0599 42.8073 49.0391 42.9219C49.0234 43.026 48.9661 43.1224 48.8672 43.2109C48.7682 43.2943 48.6641 43.3359 48.5547 43.3359C48.4401 43.3359 48.3438 43.2917 48.2656 43.2031C48.1927 43.1094 48.1667 43.0052 48.1875 42.8906ZM51.1562 47.3516L50.0078 54H49.5859L51.0391 45.5469H51.4609L51.1562 47.3516ZM50.7969 49.0469L50.6406 48.5938C50.7656 48.1823 50.9427 47.7865 51.1719 47.4062C51.4062 47.026 51.6823 46.6849 52 46.3828C52.3229 46.0807 52.6823 45.8411 53.0781 45.6641C53.474 45.487 53.901 45.3958 54.3594 45.3906C54.8385 45.3906 55.2292 45.474 55.5312 45.6406C55.8385 45.8073 56.0703 46.0391 56.2266 46.3359C56.388 46.6276 56.4844 46.9635 56.5156 47.3438C56.5469 47.7188 56.5312 48.1146 56.4688 48.5312L55.5234 54H55.1016L56.0469 48.5312C56.125 48.0573 56.1354 47.612 56.0781 47.1953C56.0208 46.7786 55.8568 46.4427 55.5859 46.1875C55.3151 45.9271 54.901 45.7995 54.3438 45.8047C53.901 45.8099 53.4896 45.9062 53.1094 46.0938C52.7292 46.2812 52.3854 46.5312 52.0781 46.8438C51.7708 47.151 51.5078 47.4974 51.2891 47.8828C51.0703 48.263 50.9062 48.651 50.7969 49.0469ZM61.125 54.1562C60.5573 54.1562 60.0677 54.0339 59.6562 53.7891C59.25 53.5391 58.9219 53.2109 58.6719 52.8047C58.4271 52.3932 58.2604 51.9401 58.1719 51.4453C58.0885 50.9505 58.0807 50.4531 58.1484 49.9531L58.2031 49.6094C58.2812 49.1042 58.4323 48.6042 58.6562 48.1094C58.8802 47.6094 59.1667 47.1562 59.5156 46.75C59.8646 46.3385 60.2708 46.0104 60.7344 45.7656C61.1979 45.5156 61.7109 45.3906 62.2734 45.3906C62.7786 45.3906 63.2083 45.4948 63.5625 45.7031C63.9167 45.9062 64.2005 46.1823 64.4141 46.5312C64.6276 46.875 64.7708 47.2604 64.8438 47.6875C64.9219 48.1146 64.9297 48.5521 64.8672 49L64.8047 49.4922H58.4922L58.5469 49.0703H64.4141L64.4375 48.9688C64.526 48.4688 64.5052 47.9766 64.375 47.4922C64.2448 47.0078 64.0052 46.6094 63.6562 46.2969C63.3073 45.9792 62.8464 45.8177 62.2734 45.8125C61.7682 45.8125 61.3073 45.9245 60.8906 46.1484C60.4792 46.3672 60.1172 46.6641 59.8047 47.0391C59.4974 47.4089 59.2422 47.8177 59.0391 48.2656C58.8411 48.7135 58.7031 49.1615 58.625 49.6094L58.5703 49.9531C58.5026 50.3906 58.5026 50.8307 58.5703 51.2734C58.638 51.7161 58.776 52.125 58.9844 52.5C59.1927 52.8698 59.474 53.1693 59.8281 53.3984C60.1823 53.6224 60.612 53.737 61.1172 53.7422C61.6432 53.7474 62.1224 53.6484 62.5547 53.4453C62.987 53.237 63.3854 52.9505 63.75 52.5859L64.0312 52.8047C63.7812 53.0911 63.5052 53.3359 63.2031 53.5391C62.901 53.7422 62.5755 53.8958 62.2266 54C61.8776 54.1042 61.5104 54.1562 61.125 54.1562ZM76.0703 53.5781L76.0156 54H70.0781L70.1328 53.5781H76.0703ZM72.3125 42.625L70.3516 54H69.9219L71.8828 42.625H72.3125ZM80.7656 54.1562C80.1979 54.1562 79.7083 54.0339 79.2969 53.7891C78.8906 53.5391 78.5625 53.2109 78.3125 52.8047C78.0677 52.3932 77.901 51.9401 77.8125 51.4453C77.7292 50.9505 77.7214 50.4531 77.7891 49.9531L77.8438 49.6094C77.9219 49.1042 78.0729 48.6042 78.2969 48.1094C78.5208 47.6094 78.8073 47.1562 79.1562 46.75C79.5052 46.3385 79.9115 46.0104 80.375 45.7656C80.8385 45.5156 81.3516 45.3906 81.9141 45.3906C82.4193 45.3906 82.849 45.4948 83.2031 45.7031C83.5573 45.9062 83.8411 46.1823 84.0547 46.5312C84.2682 46.875 84.4115 47.2604 84.4844 47.6875C84.5625 48.1146 84.5703 48.5521 84.5078 49L84.4453 49.4922H78.1328L78.1875 49.0703H84.0547L84.0781 48.9688C84.1667 48.4688 84.1458 47.9766 84.0156 47.4922C83.8854 47.0078 83.6458 46.6094 83.2969 46.2969C82.9479 45.9792 82.487 45.8177 81.9141 45.8125C81.4089 45.8125 80.9479 45.9245 80.5312 46.1484C80.1198 46.3672 79.7578 46.6641 79.4453 47.0391C79.138 47.4089 78.8828 47.8177 78.6797 48.2656C78.4818 48.7135 78.3438 49.1615 78.2656 49.6094L78.2109 49.9531C78.1432 50.3906 78.1432 50.8307 78.2109 51.2734C78.2786 51.7161 78.4167 52.125 78.625 52.5C78.8333 52.8698 79.1146 53.1693 79.4688 53.3984C79.8229 53.6224 80.2526 53.737 80.7578 53.7422C81.2839 53.7474 81.763 53.6484 82.1953 53.4453C82.6276 53.237 83.026 52.9505 83.3906 52.5859L83.6719 52.8047C83.4219 53.0911 83.1458 53.3359 82.8438 53.5391C82.5417 53.7422 82.2161 53.8958 81.8672 54C81.5182 54.1042 81.151 54.1562 80.7656 54.1562ZM90.9766 52.4141L91.7266 48.0469C91.8099 47.5677 91.7708 47.1615 91.6094 46.8281C91.4531 46.4948 91.2057 46.2422 90.8672 46.0703C90.5286 45.8984 90.125 45.8125 89.6562 45.8125C89.224 45.8125 88.7969 45.8932 88.375 46.0547C87.9583 46.2109 87.5938 46.4427 87.2812 46.75C86.9688 47.0521 86.7604 47.4245 86.6562 47.8672L86.2344 47.8516C86.3125 47.4609 86.4609 47.1146 86.6797 46.8125C86.9036 46.5052 87.1745 46.2474 87.4922 46.0391C87.8099 45.8307 88.1536 45.6719 88.5234 45.5625C88.8984 45.4479 89.276 45.3906 89.6562 45.3906C90.1979 45.3906 90.6719 45.4974 91.0781 45.7109C91.4844 45.9193 91.7839 46.224 91.9766 46.625C92.1745 47.0208 92.2292 47.5 92.1406 48.0625L91.4141 52.2969C91.3672 52.5625 91.3307 52.8333 91.3047 53.1094C91.2839 53.3854 91.2969 53.6589 91.3438 53.9297L91.3359 54H90.8594C90.8385 53.7344 90.8411 53.4688 90.8672 53.2031C90.8932 52.9375 90.9297 52.6745 90.9766 52.4141ZM91.6953 49.2812L91.6562 49.7109H89.5469C89.1823 49.7161 88.7969 49.7552 88.3906 49.8281C87.9844 49.8958 87.5938 50.013 87.2188 50.1797C86.8438 50.3411 86.5208 50.5625 86.25 50.8438C85.9844 51.1198 85.8099 51.4688 85.7266 51.8906C85.6589 52.2656 85.7005 52.5911 85.8516 52.8672C86.0026 53.1432 86.224 53.3568 86.5156 53.5078C86.8073 53.6589 87.1276 53.737 87.4766 53.7422C88.0339 53.7474 88.5495 53.651 89.0234 53.4531C89.5026 53.25 89.9323 52.9714 90.3125 52.6172C90.6927 52.2578 91.0156 51.8411 91.2812 51.3672L91.4141 51.7734C91.2266 52.138 90.9948 52.4688 90.7188 52.7656C90.4427 53.0625 90.1328 53.3151 89.7891 53.5234C89.4453 53.7266 89.0781 53.8828 88.6875 53.9922C88.3021 54.1016 87.901 54.1562 87.4844 54.1562C87.0365 54.151 86.6354 54.0573 86.2812 53.875C85.9271 53.6875 85.6589 53.4219 85.4766 53.0781C85.2943 52.7344 85.2396 52.3281 85.3125 51.8594C85.3906 51.375 85.5729 50.9688 85.8594 50.6406C86.1458 50.3125 86.4922 50.0495 86.8984 49.8516C87.3099 49.6536 87.7448 49.5104 88.2031 49.4219C88.6615 49.3333 89.099 49.2865 89.5156 49.2812H91.6953ZM95.3828 47.0156L94.1797 54H93.7578L95.2109 45.5469H95.6328L95.3828 47.0156ZM98.8984 45.4844L98.7969 45.8438C98.7135 45.8333 98.6302 45.8255 98.5469 45.8203C98.4635 45.8099 98.3776 45.8047 98.2891 45.8047C97.7891 45.8047 97.3464 45.9141 96.9609 46.1328C96.5755 46.3464 96.2422 46.6328 95.9609 46.9922C95.6849 47.3516 95.4557 47.7474 95.2734 48.1797C95.0964 48.6068 94.9635 49.0339 94.875 49.4609L94.5859 49.4844C94.6797 49 94.8177 48.5156 95 48.0312C95.1875 47.5469 95.4297 47.1042 95.7266 46.7031C96.0286 46.3021 96.3906 45.9818 96.8125 45.7422C97.2396 45.5026 97.737 45.3854 98.3047 45.3906C98.4089 45.3906 98.5104 45.3984 98.6094 45.4141C98.7083 45.4297 98.8047 45.4531 98.8984 45.4844ZM100.516 47.3516L99.3672 54H98.9453L100.398 45.5469H100.82L100.516 47.3516ZM100.156 49.0469L100 48.5938C100.125 48.1823 100.302 47.7865 100.531 47.4062C100.766 47.026 101.042 46.6849 101.359 46.3828C101.682 46.0807 102.042 45.8411 102.438 45.6641C102.833 45.487 103.26 45.3958 103.719 45.3906C104.198 45.3906 104.589 45.474 104.891 45.6406C105.198 45.8073 105.43 46.0391 105.586 46.3359C105.747 46.6276 105.844 46.9635 105.875 47.3438C105.906 47.7188 105.891 48.1146 105.828 48.5312L104.883 54H104.461L105.406 48.5312C105.484 48.0573 105.495 47.612 105.438 47.1953C105.38 46.7786 105.216 46.4427 104.945 46.1875C104.674 45.9271 104.26 45.7995 103.703 45.8047C103.26 45.8099 102.849 45.9062 102.469 46.0938C102.089 46.2812 101.745 46.5312 101.438 46.8438C101.13 47.151 100.867 47.4974 100.648 47.8828C100.43 48.263 100.266 48.651 100.156 49.0469ZM109.422 45.5469L107.969 54H107.547L109 45.5469H109.422ZM109.25 42.8906C109.266 42.7865 109.32 42.6901 109.414 42.6016C109.513 42.513 109.617 42.4688 109.727 42.4688C109.846 42.4688 109.943 42.5156 110.016 42.6094C110.094 42.7031 110.122 42.8073 110.102 42.9219C110.086 43.026 110.029 43.1224 109.93 43.2109C109.831 43.2943 109.727 43.3359 109.617 43.3359C109.503 43.3359 109.406 43.2917 109.328 43.2031C109.255 43.1094 109.229 43.0052 109.25 42.8906ZM112.219 47.3516L111.07 54H110.648L112.102 45.5469H112.523L112.219 47.3516ZM111.859 49.0469L111.703 48.5938C111.828 48.1823 112.005 47.7865 112.234 47.4062C112.469 47.026 112.745 46.6849 113.062 46.3828C113.385 46.0807 113.745 45.8411 114.141 45.6641C114.536 45.487 114.964 45.3958 115.422 45.3906C115.901 45.3906 116.292 45.474 116.594 45.6406C116.901 45.8073 117.133 46.0391 117.289 46.3359C117.451 46.6276 117.547 46.9635 117.578 47.3438C117.609 47.7188 117.594 48.1146 117.531 48.5312L116.586 54H116.164L117.109 48.5312C117.188 48.0573 117.198 47.612 117.141 47.1953C117.083 46.7786 116.919 46.4427 116.648 46.1875C116.378 45.9271 115.964 45.7995 115.406 45.8047C114.964 45.8099 114.552 45.9062 114.172 46.0938C113.792 46.2812 113.448 46.5312 113.141 46.8438C112.833 47.151 112.57 47.4974 112.352 47.8828C112.133 48.263 111.969 48.651 111.859 49.0469ZM126.078 45.5469H126.508L125.078 53.8828C124.964 54.513 124.747 55.0964 124.43 55.6328C124.112 56.1693 123.698 56.599 123.188 56.9219C122.677 57.2448 122.081 57.4062 121.398 57.4062C121.039 57.4062 120.706 57.349 120.398 57.2344C120.091 57.1198 119.812 56.9557 119.562 56.7422C119.312 56.5286 119.096 56.2708 118.914 55.9688L119.234 55.7031C119.479 56.099 119.776 56.4115 120.125 56.6406C120.474 56.875 120.891 56.9922 121.375 56.9922C121.984 56.9922 122.513 56.849 122.961 56.5625C123.414 56.2812 123.781 55.9036 124.062 55.4297C124.344 54.9609 124.536 54.4453 124.641 53.8828L125.766 47.4062L126.078 45.5469ZM119.477 49.8516L119.5 49.6875C119.589 49.1875 119.727 48.6849 119.914 48.1797C120.107 47.6745 120.357 47.2109 120.664 46.7891C120.971 46.3672 121.344 46.0286 121.781 45.7734C122.219 45.5182 122.727 45.3906 123.305 45.3906C123.69 45.3906 124.049 45.4609 124.383 45.6016C124.721 45.7422 125.016 45.9401 125.266 46.1953C125.516 46.4453 125.708 46.7396 125.844 47.0781C125.979 47.4167 126.039 47.7839 126.023 48.1797L125.438 51.625C125.339 52.0104 125.167 52.3594 124.922 52.6719C124.677 52.9792 124.388 53.2448 124.055 53.4688C123.727 53.6875 123.372 53.8568 122.992 53.9766C122.612 54.0964 122.232 54.1562 121.852 54.1562C121.268 54.1562 120.799 54.0208 120.445 53.75C120.096 53.474 119.839 53.1198 119.672 52.6875C119.51 52.25 119.419 51.7812 119.398 51.2812C119.378 50.7812 119.404 50.3047 119.477 49.8516ZM119.938 49.6875L119.906 49.8516C119.839 50.2422 119.805 50.6615 119.805 51.1094C119.805 51.5573 119.865 51.9792 119.984 52.375C120.109 52.7708 120.318 53.0964 120.609 53.3516C120.906 53.6016 121.315 53.7292 121.836 53.7344C122.31 53.7344 122.776 53.6406 123.234 53.4531C123.693 53.2656 124.094 53 124.438 52.6562C124.786 52.3073 125.031 51.8984 125.172 51.4297L125.703 48.4609C125.729 48.0911 125.688 47.7474 125.578 47.4297C125.474 47.1068 125.312 46.8255 125.094 46.5859C124.88 46.3411 124.62 46.151 124.312 46.0156C124.01 45.8802 123.674 45.8125 123.305 45.8125C122.789 45.8125 122.336 45.9297 121.945 46.1641C121.56 46.3984 121.232 46.7083 120.961 47.0938C120.695 47.4792 120.477 47.8984 120.305 48.3516C120.138 48.8047 120.016 49.25 119.938 49.6875Z" fill="#05E6F2"/>
<rect y="64" width="204" height="48" rx="2" fill="#2D9CDB" fill-opacity="0.28"/>
<g filter="url(#filter0_d_399_757)">
<path d="M13.3906 78.3828H9.92969L9.97656 77.9609H12.7656C13.3229 77.9557 13.8464 77.8724 14.3359 77.7109C14.8255 77.5495 15.2422 77.2917 15.5859 76.9375C15.9297 76.5781 16.1562 76.1016 16.2656 75.5078C16.3802 74.8984 16.3151 74.4167 16.0703 74.0625C15.8255 73.7031 15.474 73.4453 15.0156 73.2891C14.5625 73.1328 14.0729 73.0521 13.5469 73.0469H11.0234L9.125 84H8.70312L10.6719 72.625H13.5391C13.9974 72.6302 14.4349 72.6875 14.8516 72.7969C15.2682 72.9062 15.6276 73.0755 15.9297 73.3047C16.237 73.5339 16.4609 73.8333 16.6016 74.2031C16.7474 74.5677 16.776 75.013 16.6875 75.5391C16.6094 76.0391 16.4531 76.4635 16.2188 76.8125C15.9844 77.1562 15.6849 77.4375 15.3203 77.6562C14.9609 77.8698 14.5469 78.0339 14.0781 78.1484L13.3906 78.3828ZM12.3438 84H8.9375L9.125 83.5859L12.3359 83.5781C12.9036 83.5677 13.4323 83.4609 13.9219 83.2578C14.4167 83.0495 14.8333 82.7474 15.1719 82.3516C15.5104 81.9505 15.7344 81.4609 15.8438 80.8828C15.9427 80.3464 15.8854 79.8958 15.6719 79.5312C15.4583 79.1615 15.1458 78.8802 14.7344 78.6875C14.3281 78.4948 13.8802 78.3932 13.3906 78.3828H11.5703L11.6406 77.9609H14.2422L14.25 78.1094C14.6979 78.1875 15.0859 78.3594 15.4141 78.625C15.7422 78.8854 15.9844 79.2109 16.1406 79.6016C16.2969 79.987 16.3385 80.4089 16.2656 80.8672C16.1615 81.5286 15.9193 82.0911 15.5391 82.5547C15.1641 83.0182 14.6979 83.375 14.1406 83.625C13.5833 83.8698 12.9844 83.9948 12.3438 84ZM23.2734 82.4141L24.0234 78.0469C24.1068 77.5677 24.0677 77.1615 23.9062 76.8281C23.75 76.4948 23.5026 76.2422 23.1641 76.0703C22.8255 75.8984 22.4219 75.8125 21.9531 75.8125C21.5208 75.8125 21.0938 75.8932 20.6719 76.0547C20.2552 76.2109 19.8906 76.4427 19.5781 76.75C19.2656 77.0521 19.0573 77.4245 18.9531 77.8672L18.5312 77.8516C18.6094 77.4609 18.7578 77.1146 18.9766 76.8125C19.2005 76.5052 19.4714 76.2474 19.7891 76.0391C20.1068 75.8307 20.4505 75.6719 20.8203 75.5625C21.1953 75.4479 21.5729 75.3906 21.9531 75.3906C22.4948 75.3906 22.9688 75.4974 23.375 75.7109C23.7812 75.9193 24.0807 76.224 24.2734 76.625C24.4714 77.0208 24.526 77.5 24.4375 78.0625L23.7109 82.2969C23.6641 82.5625 23.6276 82.8333 23.6016 83.1094C23.5807 83.3854 23.5938 83.6589 23.6406 83.9297L23.6328 84H23.1562C23.1354 83.7344 23.138 83.4688 23.1641 83.2031C23.1901 82.9375 23.2266 82.6745 23.2734 82.4141ZM23.9922 79.2812L23.9531 79.7109H21.8438C21.4792 79.7161 21.0938 79.7552 20.6875 79.8281C20.2812 79.8958 19.8906 80.013 19.5156 80.1797C19.1406 80.3411 18.8177 80.5625 18.5469 80.8438C18.2812 81.1198 18.1068 81.4688 18.0234 81.8906C17.9557 82.2656 17.9974 82.5911 18.1484 82.8672C18.2995 83.1432 18.5208 83.3568 18.8125 83.5078C19.1042 83.6589 19.4245 83.737 19.7734 83.7422C20.3307 83.7474 20.8464 83.651 21.3203 83.4531C21.7995 83.25 22.2292 82.9714 22.6094 82.6172C22.9896 82.2578 23.3125 81.8411 23.5781 81.3672L23.7109 81.7734C23.5234 82.138 23.2917 82.4688 23.0156 82.7656C22.7396 83.0625 22.4297 83.3151 22.0859 83.5234C21.7422 83.7266 21.375 83.8828 20.9844 83.9922C20.599 84.1016 20.1979 84.1562 19.7812 84.1562C19.3333 84.151 18.9323 84.0573 18.5781 83.875C18.224 83.6875 17.9557 83.4219 17.7734 83.0781C17.5911 82.7344 17.5365 82.3281 17.6094 81.8594C17.6875 81.375 17.8698 80.9688 18.1562 80.6406C18.4427 80.3125 18.7891 80.0495 19.1953 79.8516C19.6068 79.6536 20.0417 79.5104 20.5 79.4219C20.9583 79.3333 21.3958 79.2865 21.8125 79.2812H23.9922ZM31.5078 81.9297C31.5911 81.5026 31.5208 81.151 31.2969 80.875C31.0729 80.5938 30.7786 80.3724 30.4141 80.2109C30.0547 80.0495 29.7057 79.9271 29.3672 79.8438C29.0599 79.7656 28.75 79.6745 28.4375 79.5703C28.125 79.4609 27.8438 79.3229 27.5938 79.1562C27.3438 78.9844 27.1536 78.7682 27.0234 78.5078C26.8984 78.2422 26.8646 77.9141 26.9219 77.5234C26.974 77.1589 27.099 76.8438 27.2969 76.5781C27.4948 76.3125 27.737 76.0938 28.0234 75.9219C28.3151 75.7448 28.6302 75.612 28.9688 75.5234C29.3073 75.4349 29.6406 75.3906 29.9688 75.3906C30.4688 75.3906 30.9245 75.4792 31.3359 75.6562C31.7526 75.8333 32.0755 76.1016 32.3047 76.4609C32.5391 76.8151 32.6276 77.263 32.5703 77.8047H32.1484C32.1953 77.362 32.1198 76.9948 31.9219 76.7031C31.724 76.4062 31.4505 76.1849 31.1016 76.0391C30.7526 75.888 30.3776 75.8125 29.9766 75.8125C29.612 75.8125 29.2422 75.8724 28.8672 75.9922C28.4922 76.1068 28.1641 76.2891 27.8828 76.5391C27.6016 76.7891 27.4219 77.112 27.3438 77.5078C27.2812 77.8359 27.3073 78.112 27.4219 78.3359C27.5365 78.5599 27.7057 78.7448 27.9297 78.8906C28.1589 79.0312 28.4115 79.1484 28.6875 79.2422C28.9635 79.3307 29.2292 79.4089 29.4844 79.4766C29.9115 79.5859 30.3255 79.7344 30.7266 79.9219C31.1328 80.1042 31.4531 80.3568 31.6875 80.6797C31.9271 80.9974 32.0078 81.4167 31.9297 81.9375C31.8724 82.3229 31.7396 82.6562 31.5312 82.9375C31.3281 83.2135 31.0729 83.4427 30.7656 83.625C30.4635 83.8021 30.1354 83.9349 29.7812 84.0234C29.4323 84.112 29.0833 84.1562 28.7344 84.1562C28.2604 84.1562 27.8021 84.0781 27.3594 83.9219C26.9219 83.7604 26.5677 83.5104 26.2969 83.1719C26.0312 82.8281 25.9245 82.388 25.9766 81.8516H26.3906C26.3698 82.3099 26.4688 82.6797 26.6875 82.9609C26.9115 83.237 27.2057 83.4349 27.5703 83.5547C27.9349 83.6745 28.3203 83.7344 28.7266 83.7344C29.1016 83.7292 29.487 83.6641 29.8828 83.5391C30.2839 83.4089 30.6354 83.2135 30.9375 82.9531C31.2396 82.6875 31.4297 82.3464 31.5078 81.9297ZM35.75 75.5469L34.2969 84H33.875L35.3281 75.5469H35.75ZM35.5781 72.8906C35.5938 72.7865 35.6484 72.6901 35.7422 72.6016C35.8411 72.513 35.9453 72.4688 36.0547 72.4688C36.1745 72.4688 36.2708 72.5156 36.3438 72.6094C36.4219 72.7031 36.4505 72.8073 36.4297 72.9219C36.4141 73.026 36.3568 73.1224 36.2578 73.2109C36.1589 73.2943 36.0547 73.3359 35.9453 73.3359C35.8307 73.3359 35.7344 73.2917 35.6562 73.2031C35.5833 73.1094 35.5573 73.0052 35.5781 72.8906ZM39.8438 83.7344C40.3333 83.7344 40.7812 83.6406 41.1875 83.4531C41.599 83.2656 41.9479 83 42.2344 82.6562C42.5208 82.3125 42.7292 81.9089 42.8594 81.4453H43.2812C43.1562 81.987 42.9297 82.4609 42.6016 82.8672C42.2734 83.2734 41.8724 83.5911 41.3984 83.8203C40.9245 84.0443 40.4089 84.1562 39.8516 84.1562C39.263 84.1562 38.7734 84.0312 38.3828 83.7812C37.9974 83.5312 37.7005 83.2005 37.4922 82.7891C37.2839 82.3776 37.151 81.9245 37.0938 81.4297C37.0365 80.9297 37.0443 80.4323 37.1172 79.9375L37.1641 79.6094C37.2474 79.0885 37.3906 78.5781 37.5938 78.0781C37.8021 77.5781 38.0703 77.1276 38.3984 76.7266C38.7266 76.3203 39.1172 75.9974 39.5703 75.7578C40.0286 75.513 40.5495 75.3906 41.1328 75.3906C41.7109 75.3906 42.2031 75.5208 42.6094 75.7812C43.0208 76.0365 43.3281 76.3854 43.5312 76.8281C43.7344 77.2708 43.8151 77.7734 43.7734 78.3359H43.3516C43.3932 77.8568 43.3307 77.4271 43.1641 77.0469C43.0026 76.6667 42.7474 76.3672 42.3984 76.1484C42.0547 75.9245 41.6354 75.8125 41.1406 75.8125C40.6094 75.8125 40.1406 75.9219 39.7344 76.1406C39.3281 76.3594 38.9792 76.651 38.6875 77.0156C38.401 77.3802 38.1667 77.7891 37.9844 78.2422C37.8021 78.6901 37.6719 79.1458 37.5938 79.6094L37.5391 79.9375C37.4714 80.375 37.4531 80.8177 37.4844 81.2656C37.5208 81.7083 37.6224 82.1172 37.7891 82.4922C37.9557 82.862 38.2057 83.1615 38.5391 83.3906C38.8776 83.6146 39.3125 83.7292 39.8438 83.7344ZM54.4219 82.3594L56.2109 72H56.6328L54.5625 84H54.1406L54.4219 82.3594ZM48.9844 79.8516L49.0078 79.6875C49.0964 79.1875 49.2344 78.6849 49.4219 78.1797C49.6146 77.6745 49.8646 77.2109 50.1719 76.7891C50.4792 76.3672 50.8516 76.0286 51.2891 75.7734C51.7266 75.5182 52.2344 75.3906 52.8125 75.3906C53.1979 75.3906 53.5573 75.4609 53.8906 75.6016C54.2292 75.7422 54.5234 75.9401 54.7734 76.1953C55.0234 76.4453 55.2161 76.7396 55.3516 77.0781C55.487 77.4167 55.5469 77.7839 55.5312 78.1797L54.9453 81.625C54.8464 82.0104 54.6745 82.3594 54.4297 82.6719C54.1849 82.9792 53.8958 83.2448 53.5625 83.4688C53.2344 83.6875 52.8802 83.8568 52.5 83.9766C52.1198 84.0964 51.7396 84.1562 51.3594 84.1562C50.776 84.1562 50.3073 84.0208 49.9531 83.75C49.6042 83.474 49.3464 83.1198 49.1797 82.6875C49.0182 82.25 48.9271 81.7812 48.9062 81.2812C48.8854 80.7812 48.9115 80.3047 48.9844 79.8516ZM49.4531 79.6875L49.4219 79.8516C49.3542 80.2422 49.3203 80.6615 49.3203 81.1094C49.3203 81.5573 49.3802 81.9792 49.5 82.375C49.6198 82.7708 49.8255 83.0964 50.1172 83.3516C50.4141 83.6016 50.8229 83.7292 51.3438 83.7344C51.8177 83.7344 52.2839 83.6406 52.7422 83.4531C53.2057 83.2656 53.6146 83 53.9688 82.6562C54.3229 82.3073 54.5703 81.8984 54.7109 81.4297L55.2422 78.4609C55.2682 78.0911 55.2266 77.7448 55.1172 77.4219C55.0078 77.099 54.8411 76.8177 54.6172 76.5781C54.3984 76.3385 54.1354 76.151 53.8281 76.0156C53.5208 75.8802 53.1823 75.8125 52.8125 75.8125C52.2969 75.8125 51.8464 75.9323 51.4609 76.1719C51.0755 76.4062 50.7474 76.7161 50.4766 77.1016C50.2057 77.4818 49.987 77.8984 49.8203 78.3516C49.6536 78.8047 49.5312 79.25 49.4531 79.6875ZM62.5703 82.4141L63.3203 78.0469C63.4036 77.5677 63.3646 77.1615 63.2031 76.8281C63.0469 76.4948 62.7995 76.2422 62.4609 76.0703C62.1224 75.8984 61.7188 75.8125 61.25 75.8125C60.8177 75.8125 60.3906 75.8932 59.9688 76.0547C59.5521 76.2109 59.1875 76.4427 58.875 76.75C58.5625 77.0521 58.3542 77.4245 58.25 77.8672L57.8281 77.8516C57.9062 77.4609 58.0547 77.1146 58.2734 76.8125C58.4974 76.5052 58.7682 76.2474 59.0859 76.0391C59.4036 75.8307 59.7474 75.6719 60.1172 75.5625C60.4922 75.4479 60.8698 75.3906 61.25 75.3906C61.7917 75.3906 62.2656 75.4974 62.6719 75.7109C63.0781 75.9193 63.3776 76.224 63.5703 76.625C63.7682 77.0208 63.8229 77.5 63.7344 78.0625L63.0078 82.2969C62.9609 82.5625 62.9245 82.8333 62.8984 83.1094C62.8776 83.3854 62.8906 83.6589 62.9375 83.9297L62.9297 84H62.4531C62.4323 83.7344 62.4349 83.4688 62.4609 83.2031C62.487 82.9375 62.5234 82.6745 62.5703 82.4141ZM63.2891 79.2812L63.25 79.7109H61.1406C60.776 79.7161 60.3906 79.7552 59.9844 79.8281C59.5781 79.8958 59.1875 80.013 58.8125 80.1797C58.4375 80.3411 58.1146 80.5625 57.8438 80.8438C57.5781 81.1198 57.4036 81.4688 57.3203 81.8906C57.2526 82.2656 57.2943 82.5911 57.4453 82.8672C57.5964 83.1432 57.8177 83.3568 58.1094 83.5078C58.401 83.6589 58.7214 83.737 59.0703 83.7422C59.6276 83.7474 60.1432 83.651 60.6172 83.4531C61.0964 83.25 61.526 82.9714 61.9062 82.6172C62.2865 82.2578 62.6094 81.8411 62.875 81.3672L63.0078 81.7734C62.8203 82.138 62.5885 82.4688 62.3125 82.7656C62.0365 83.0625 61.7266 83.3151 61.3828 83.5234C61.0391 83.7266 60.6719 83.8828 60.2812 83.9922C59.8958 84.1016 59.4948 84.1562 59.0781 84.1562C58.6302 84.151 58.2292 84.0573 57.875 83.875C57.5208 83.6875 57.2526 83.4219 57.0703 83.0781C56.888 82.7344 56.8333 82.3281 56.9062 81.8594C56.9844 81.375 57.1667 80.9688 57.4531 80.6406C57.7396 80.3125 58.0859 80.0495 58.4922 79.8516C58.9036 79.6536 59.3385 79.5104 59.7969 79.4219C60.2552 79.3333 60.6927 79.2865 61.1094 79.2812H63.2891ZM69.5938 75.5469L69.5391 75.9766H65.7266L65.7891 75.5469H69.5938ZM67.7031 73.2656H68.1328L66.625 81.9766C66.5781 82.2474 66.5599 82.5182 66.5703 82.7891C66.5807 83.0547 66.6562 83.2786 66.7969 83.4609C66.9375 83.638 67.1771 83.7292 67.5156 83.7344C67.6615 83.7344 67.8047 83.7266 67.9453 83.7109C68.0859 83.6953 68.2266 83.6797 68.3672 83.6641L68.3828 84.0625C68.2422 84.099 68.1016 84.1224 67.9609 84.1328C67.8203 84.1484 67.6771 84.1562 67.5312 84.1562C67.0885 84.151 66.763 84.0469 66.5547 83.8438C66.3464 83.6354 66.2188 83.3672 66.1719 83.0391C66.1302 82.7057 66.1406 82.3516 66.2031 81.9766L67.7031 73.2656ZM75.6953 82.4141L76.4453 78.0469C76.5286 77.5677 76.4896 77.1615 76.3281 76.8281C76.1719 76.4948 75.9245 76.2422 75.5859 76.0703C75.2474 75.8984 74.8438 75.8125 74.375 75.8125C73.9427 75.8125 73.5156 75.8932 73.0938 76.0547C72.6771 76.2109 72.3125 76.4427 72 76.75C71.6875 77.0521 71.4792 77.4245 71.375 77.8672L70.9531 77.8516C71.0312 77.4609 71.1797 77.1146 71.3984 76.8125C71.6224 76.5052 71.8932 76.2474 72.2109 76.0391C72.5286 75.8307 72.8724 75.6719 73.2422 75.5625C73.6172 75.4479 73.9948 75.3906 74.375 75.3906C74.9167 75.3906 75.3906 75.4974 75.7969 75.7109C76.2031 75.9193 76.5026 76.224 76.6953 76.625C76.8932 77.0208 76.9479 77.5 76.8594 78.0625L76.1328 82.2969C76.0859 82.5625 76.0495 82.8333 76.0234 83.1094C76.0026 83.3854 76.0156 83.6589 76.0625 83.9297L76.0547 84H75.5781C75.5573 83.7344 75.5599 83.4688 75.5859 83.2031C75.612 82.9375 75.6484 82.6745 75.6953 82.4141ZM76.4141 79.2812L76.375 79.7109H74.2656C73.901 79.7161 73.5156 79.7552 73.1094 79.8281C72.7031 79.8958 72.3125 80.013 71.9375 80.1797C71.5625 80.3411 71.2396 80.5625 70.9688 80.8438C70.7031 81.1198 70.5286 81.4688 70.4453 81.8906C70.3776 82.2656 70.4193 82.5911 70.5703 82.8672C70.7214 83.1432 70.9427 83.3568 71.2344 83.5078C71.526 83.6589 71.8464 83.737 72.1953 83.7422C72.7526 83.7474 73.2682 83.651 73.7422 83.4531C74.2214 83.25 74.651 82.9714 75.0312 82.6172C75.4115 82.2578 75.7344 81.8411 76 81.3672L76.1328 81.7734C75.9453 82.138 75.7135 82.4688 75.4375 82.7656C75.1615 83.0625 74.8516 83.3151 74.5078 83.5234C74.1641 83.7266 73.7969 83.8828 73.4062 83.9922C73.0208 84.1016 72.6198 84.1562 72.2031 84.1562C71.7552 84.151 71.3542 84.0573 71 83.875C70.6458 83.6875 70.3776 83.4219 70.1953 83.0781C70.013 82.7344 69.9583 82.3281 70.0312 81.8594C70.1094 81.375 70.2917 80.9688 70.5781 80.6406C70.8646 80.3125 71.2109 80.0495 71.6172 79.8516C72.0286 79.6536 72.4635 79.5104 72.9219 79.4219C73.3802 79.3333 73.8177 79.2865 74.2344 79.2812H76.4141ZM82.1328 78.5859L82.0781 79.0078H78.5L78.5625 78.5859H82.1328ZM88.5391 81.9297C88.6224 81.5026 88.5521 81.151 88.3281 80.875C88.1042 80.5938 87.8099 80.3724 87.4453 80.2109C87.0859 80.0495 86.737 79.9271 86.3984 79.8438C86.0911 79.7656 85.7812 79.6745 85.4688 79.5703C85.1562 79.4609 84.875 79.3229 84.625 79.1562C84.375 78.9844 84.1849 78.7682 84.0547 78.5078C83.9297 78.2422 83.8958 77.9141 83.9531 77.5234C84.0052 77.1589 84.1302 76.8438 84.3281 76.5781C84.526 76.3125 84.7682 76.0938 85.0547 75.9219C85.3464 75.7448 85.6615 75.612 86 75.5234C86.3385 75.4349 86.6719 75.3906 87 75.3906C87.5 75.3906 87.9557 75.4792 88.3672 75.6562C88.7839 75.8333 89.1068 76.1016 89.3359 76.4609C89.5703 76.8151 89.6589 77.263 89.6016 77.8047H89.1797C89.2266 77.362 89.151 76.9948 88.9531 76.7031C88.7552 76.4062 88.4818 76.1849 88.1328 76.0391C87.7839 75.888 87.4089 75.8125 87.0078 75.8125C86.6432 75.8125 86.2734 75.8724 85.8984 75.9922C85.5234 76.1068 85.1953 76.2891 84.9141 76.5391C84.6328 76.7891 84.4531 77.112 84.375 77.5078C84.3125 77.8359 84.3385 78.112 84.4531 78.3359C84.5677 78.5599 84.737 78.7448 84.9609 78.8906C85.1901 79.0312 85.4427 79.1484 85.7188 79.2422C85.9948 79.3307 86.2604 79.4089 86.5156 79.4766C86.9427 79.5859 87.3568 79.7344 87.7578 79.9219C88.1641 80.1042 88.4844 80.3568 88.7188 80.6797C88.9583 80.9974 89.0391 81.4167 88.9609 81.9375C88.9036 82.3229 88.7708 82.6562 88.5625 82.9375C88.3594 83.2135 88.1042 83.4427 87.7969 83.625C87.4948 83.8021 87.1667 83.9349 86.8125 84.0234C86.4635 84.112 86.1146 84.1562 85.7656 84.1562C85.2917 84.1562 84.8333 84.0781 84.3906 83.9219C83.9531 83.7604 83.599 83.5104 83.3281 83.1719C83.0625 82.8281 82.9557 82.388 83.0078 81.8516H83.4219C83.401 82.3099 83.5 82.6797 83.7188 82.9609C83.9427 83.237 84.237 83.4349 84.6016 83.5547C84.9661 83.6745 85.3516 83.7344 85.7578 83.7344C86.1328 83.7292 86.5182 83.6641 86.9141 83.5391C87.3151 83.4089 87.6667 83.2135 87.9688 82.9531C88.2708 82.6875 88.4609 82.3464 88.5391 81.9297ZM95.0469 75.5469L94.9922 75.9766H91.1797L91.2422 75.5469H95.0469ZM93.1562 73.2656H93.5859L92.0781 81.9766C92.0312 82.2474 92.013 82.5182 92.0234 82.7891C92.0339 83.0547 92.1094 83.2786 92.25 83.4609C92.3906 83.638 92.6302 83.7292 92.9688 83.7344C93.1146 83.7344 93.2578 83.7266 93.3984 83.7109C93.5391 83.6953 93.6797 83.6797 93.8203 83.6641L93.8359 84.0625C93.6953 84.099 93.5547 84.1224 93.4141 84.1328C93.2734 84.1484 93.1302 84.1562 92.9844 84.1562C92.5417 84.151 92.2161 84.0469 92.0078 83.8438C91.7995 83.6354 91.6719 83.3672 91.625 83.0391C91.5833 82.7057 91.5938 82.3516 91.6562 81.9766L93.1562 73.2656ZM97.3516 77.0156L96.1484 84H95.7266L97.1797 75.5469H97.6016L97.3516 77.0156ZM100.867 75.4844L100.766 75.8438C100.682 75.8333 100.599 75.8255 100.516 75.8203C100.432 75.8099 100.346 75.8047 100.258 75.8047C99.7578 75.8047 99.3151 75.9141 98.9297 76.1328C98.5443 76.3464 98.2109 76.6328 97.9297 76.9922C97.6536 77.3516 97.4245 77.7474 97.2422 78.1797C97.0651 78.6068 96.9323 79.0339 96.8438 79.4609L96.5547 79.4844C96.6484 79 96.7865 78.5156 96.9688 78.0312C97.1562 77.5469 97.3984 77.1042 97.6953 76.7031C97.9974 76.3021 98.3594 75.9818 98.7812 75.7422C99.2083 75.5026 99.7057 75.3854 100.273 75.3906C100.378 75.3906 100.479 75.3984 100.578 75.4141C100.677 75.4297 100.773 75.4531 100.867 75.4844ZM106.742 82.0469L107.859 75.5469H108.289L106.836 84H106.406L106.742 82.0469ZM107.047 80.6953L107.406 80.6875C107.312 81.1823 107.161 81.6406 106.953 82.0625C106.745 82.4844 106.479 82.8516 106.156 83.1641C105.839 83.4766 105.464 83.7214 105.031 83.8984C104.604 84.0703 104.125 84.1562 103.594 84.1562C103.109 84.1562 102.708 84.0703 102.391 83.8984C102.078 83.7214 101.839 83.4818 101.672 83.1797C101.505 82.8724 101.404 82.526 101.367 82.1406C101.331 81.75 101.346 81.3411 101.414 80.9141L102.336 75.5469H102.758L101.828 80.9297C101.771 81.2839 101.753 81.6276 101.773 81.9609C101.794 82.2943 101.867 82.5938 101.992 82.8594C102.117 83.125 102.307 83.3385 102.562 83.5C102.823 83.6562 103.161 83.7344 103.578 83.7344C104.208 83.7344 104.76 83.6042 105.234 83.3438C105.708 83.0833 106.096 82.7266 106.398 82.2734C106.706 81.8151 106.922 81.2891 107.047 80.6953ZM112.281 83.7344C112.771 83.7344 113.219 83.6406 113.625 83.4531C114.036 83.2656 114.385 83 114.672 82.6562C114.958 82.3125 115.167 81.9089 115.297 81.4453H115.719C115.594 81.987 115.367 82.4609 115.039 82.8672C114.711 83.2734 114.31 83.5911 113.836 83.8203C113.362 84.0443 112.846 84.1562 112.289 84.1562C111.701 84.1562 111.211 84.0312 110.82 83.7812C110.435 83.5312 110.138 83.2005 109.93 82.7891C109.721 82.3776 109.589 81.9245 109.531 81.4297C109.474 80.9297 109.482 80.4323 109.555 79.9375L109.602 79.6094C109.685 79.0885 109.828 78.5781 110.031 78.0781C110.24 77.5781 110.508 77.1276 110.836 76.7266C111.164 76.3203 111.555 75.9974 112.008 75.7578C112.466 75.513 112.987 75.3906 113.57 75.3906C114.148 75.3906 114.641 75.5208 115.047 75.7812C115.458 76.0365 115.766 76.3854 115.969 76.8281C116.172 77.2708 116.253 77.7734 116.211 78.3359H115.789C115.831 77.8568 115.768 77.4271 115.602 77.0469C115.44 76.6667 115.185 76.3672 114.836 76.1484C114.492 75.9245 114.073 75.8125 113.578 75.8125C113.047 75.8125 112.578 75.9219 112.172 76.1406C111.766 76.3594 111.417 76.651 111.125 77.0156C110.839 77.3802 110.604 77.7891 110.422 78.2422C110.24 78.6901 110.109 79.1458 110.031 79.6094L109.977 79.9375C109.909 80.375 109.891 80.8177 109.922 81.2656C109.958 81.7083 110.06 82.1172 110.227 82.4922C110.393 82.862 110.643 83.1615 110.977 83.3906C111.315 83.6146 111.75 83.7292 112.281 83.7344ZM121.531 75.5469L121.477 75.9766H117.664L117.727 75.5469H121.531ZM119.641 73.2656H120.07L118.562 81.9766C118.516 82.2474 118.497 82.5182 118.508 82.7891C118.518 83.0547 118.594 83.2786 118.734 83.4609C118.875 83.638 119.115 83.7292 119.453 83.7344C119.599 83.7344 119.742 83.7266 119.883 83.7109C120.023 83.6953 120.164 83.6797 120.305 83.6641L120.32 84.0625C120.18 84.099 120.039 84.1224 119.898 84.1328C119.758 84.1484 119.615 84.1562 119.469 84.1562C119.026 84.151 118.701 84.0469 118.492 83.8438C118.284 83.6354 118.156 83.3672 118.109 83.0391C118.068 82.7057 118.078 82.3516 118.141 81.9766L119.641 73.2656ZM128.039 82.0469L129.156 75.5469H129.586L128.133 84H127.703L128.039 82.0469ZM128.344 80.6953L128.703 80.6875C128.609 81.1823 128.458 81.6406 128.25 82.0625C128.042 82.4844 127.776 82.8516 127.453 83.1641C127.135 83.4766 126.76 83.7214 126.328 83.8984C125.901 84.0703 125.422 84.1562 124.891 84.1562C124.406 84.1562 124.005 84.0703 123.688 83.8984C123.375 83.7214 123.135 83.4818 122.969 83.1797C122.802 82.8724 122.701 82.526 122.664 82.1406C122.628 81.75 122.643 81.3411 122.711 80.9141L123.633 75.5469H124.055L123.125 80.9297C123.068 81.2839 123.049 81.6276 123.07 81.9609C123.091 82.2943 123.164 82.5938 123.289 82.8594C123.414 83.125 123.604 83.3385 123.859 83.5C124.12 83.6562 124.458 83.7344 124.875 83.7344C125.505 83.7344 126.057 83.6042 126.531 83.3438C127.005 83.0833 127.393 82.7266 127.695 82.2734C128.003 81.8151 128.219 81.2891 128.344 80.6953ZM132.336 77.0156L131.133 84H130.711L132.164 75.5469H132.586L132.336 77.0156ZM135.852 75.4844L135.75 75.8438C135.667 75.8333 135.583 75.8255 135.5 75.8203C135.417 75.8099 135.331 75.8047 135.242 75.8047C134.742 75.8047 134.299 75.9141 133.914 76.1328C133.529 76.3464 133.195 76.6328 132.914 76.9922C132.638 77.3516 132.409 77.7474 132.227 78.1797C132.049 78.6068 131.917 79.0339 131.828 79.4609L131.539 79.4844C131.633 79 131.771 78.5156 131.953 78.0312C132.141 77.5469 132.383 77.1042 132.68 76.7031C132.982 76.3021 133.344 75.9818 133.766 75.7422C134.193 75.5026 134.69 75.3854 135.258 75.3906C135.362 75.3906 135.464 75.3984 135.562 75.4141C135.661 75.4297 135.758 75.4531 135.852 75.4844ZM138.781 84.1562C138.214 84.1562 137.724 84.0339 137.312 83.7891C136.906 83.5391 136.578 83.2109 136.328 82.8047C136.083 82.3932 135.917 81.9401 135.828 81.4453C135.745 80.9505 135.737 80.4531 135.805 79.9531L135.859 79.6094C135.938 79.1042 136.089 78.6042 136.312 78.1094C136.536 77.6094 136.823 77.1562 137.172 76.75C137.521 76.3385 137.927 76.0104 138.391 75.7656C138.854 75.5156 139.367 75.3906 139.93 75.3906C140.435 75.3906 140.865 75.4948 141.219 75.7031C141.573 75.9062 141.857 76.1823 142.07 76.5312C142.284 76.875 142.427 77.2604 142.5 77.6875C142.578 78.1146 142.586 78.5521 142.523 79L142.461 79.4922H136.148L136.203 79.0703H142.07L142.094 78.9688C142.182 78.4688 142.161 77.9766 142.031 77.4922C141.901 77.0078 141.661 76.6094 141.312 76.2969C140.964 75.9792 140.503 75.8177 139.93 75.8125C139.424 75.8125 138.964 75.9245 138.547 76.1484C138.135 76.3672 137.773 76.6641 137.461 77.0391C137.154 77.4089 136.898 77.8177 136.695 78.2656C136.497 78.7135 136.359 79.1615 136.281 79.6094L136.227 79.9531C136.159 80.3906 136.159 80.8307 136.227 81.2734C136.294 81.7161 136.432 82.125 136.641 82.5C136.849 82.8698 137.13 83.1693 137.484 83.3984C137.839 83.6224 138.268 83.737 138.773 83.7422C139.299 83.7474 139.779 83.6484 140.211 83.4453C140.643 83.237 141.042 82.9505 141.406 82.5859L141.688 82.8047C141.438 83.0911 141.161 83.3359 140.859 83.5391C140.557 83.7422 140.232 83.8958 139.883 84C139.534 84.1042 139.167 84.1562 138.781 84.1562ZM152.789 82.4141L153.539 78.0469C153.622 77.5677 153.583 77.1615 153.422 76.8281C153.266 76.4948 153.018 76.2422 152.68 76.0703C152.341 75.8984 151.938 75.8125 151.469 75.8125C151.036 75.8125 150.609 75.8932 150.188 76.0547C149.771 76.2109 149.406 76.4427 149.094 76.75C148.781 77.0521 148.573 77.4245 148.469 77.8672L148.047 77.8516C148.125 77.4609 148.273 77.1146 148.492 76.8125C148.716 76.5052 148.987 76.2474 149.305 76.0391C149.622 75.8307 149.966 75.6719 150.336 75.5625C150.711 75.4479 151.089 75.3906 151.469 75.3906C152.01 75.3906 152.484 75.4974 152.891 75.7109C153.297 75.9193 153.596 76.224 153.789 76.625C153.987 77.0208 154.042 77.5 153.953 78.0625L153.227 82.2969C153.18 82.5625 153.143 82.8333 153.117 83.1094C153.096 83.3854 153.109 83.6589 153.156 83.9297L153.148 84H152.672C152.651 83.7344 152.654 83.4688 152.68 83.2031C152.706 82.9375 152.742 82.6745 152.789 82.4141ZM153.508 79.2812L153.469 79.7109H151.359C150.995 79.7161 150.609 79.7552 150.203 79.8281C149.797 79.8958 149.406 80.013 149.031 80.1797C148.656 80.3411 148.333 80.5625 148.062 80.8438C147.797 81.1198 147.622 81.4688 147.539 81.8906C147.471 82.2656 147.513 82.5911 147.664 82.8672C147.815 83.1432 148.036 83.3568 148.328 83.5078C148.62 83.6589 148.94 83.737 149.289 83.7422C149.846 83.7474 150.362 83.651 150.836 83.4531C151.315 83.25 151.745 82.9714 152.125 82.6172C152.505 82.2578 152.828 81.8411 153.094 81.3672L153.227 81.7734C153.039 82.138 152.807 82.4688 152.531 82.7656C152.255 83.0625 151.945 83.3151 151.602 83.5234C151.258 83.7266 150.891 83.8828 150.5 83.9922C150.115 84.1016 149.714 84.1562 149.297 84.1562C148.849 84.151 148.448 84.0573 148.094 83.875C147.74 83.6875 147.471 83.4219 147.289 83.0781C147.107 82.7344 147.052 82.3281 147.125 81.8594C147.203 81.375 147.385 80.9688 147.672 80.6406C147.958 80.3125 148.305 80.0495 148.711 79.8516C149.122 79.6536 149.557 79.5104 150.016 79.4219C150.474 79.3333 150.911 79.2865 151.328 79.2812H153.508ZM157.141 77.3516L155.992 84H155.57L157.023 75.5469H157.445L157.141 77.3516ZM156.781 79.0469L156.625 78.5938C156.75 78.1823 156.927 77.7865 157.156 77.4062C157.391 77.026 157.667 76.6849 157.984 76.3828C158.307 76.0807 158.667 75.8411 159.062 75.6641C159.458 75.487 159.885 75.3958 160.344 75.3906C160.823 75.3906 161.214 75.474 161.516 75.6406C161.823 75.8073 162.055 76.0391 162.211 76.3359C162.372 76.6276 162.469 76.9635 162.5 77.3438C162.531 77.7188 162.516 78.1146 162.453 78.5312L161.508 84H161.086L162.031 78.5312C162.109 78.0573 162.12 77.612 162.062 77.1953C162.005 76.7786 161.841 76.4427 161.57 76.1875C161.299 75.9271 160.885 75.7995 160.328 75.8047C159.885 75.8099 159.474 75.9062 159.094 76.0938C158.714 76.2812 158.37 76.5312 158.062 76.8438C157.755 77.151 157.492 77.4974 157.273 77.8828C157.055 78.263 156.891 78.651 156.781 79.0469ZM169.844 82.3594L171.633 72H172.055L169.984 84H169.562L169.844 82.3594ZM164.406 79.8516L164.43 79.6875C164.518 79.1875 164.656 78.6849 164.844 78.1797C165.036 77.6745 165.286 77.2109 165.594 76.7891C165.901 76.3672 166.273 76.0286 166.711 75.7734C167.148 75.5182 167.656 75.3906 168.234 75.3906C168.62 75.3906 168.979 75.4609 169.312 75.6016C169.651 75.7422 169.945 75.9401 170.195 76.1953C170.445 76.4453 170.638 76.7396 170.773 77.0781C170.909 77.4167 170.969 77.7839 170.953 78.1797L170.367 81.625C170.268 82.0104 170.096 82.3594 169.852 82.6719C169.607 82.9792 169.318 83.2448 168.984 83.4688C168.656 83.6875 168.302 83.8568 167.922 83.9766C167.542 84.0964 167.161 84.1562 166.781 84.1562C166.198 84.1562 165.729 84.0208 165.375 83.75C165.026 83.474 164.768 83.1198 164.602 82.6875C164.44 82.25 164.349 81.7812 164.328 81.2812C164.307 80.7812 164.333 80.3047 164.406 79.8516ZM164.875 79.6875L164.844 79.8516C164.776 80.2422 164.742 80.6615 164.742 81.1094C164.742 81.5573 164.802 81.9792 164.922 82.375C165.042 82.7708 165.247 83.0964 165.539 83.3516C165.836 83.6016 166.245 83.7292 166.766 83.7344C167.24 83.7344 167.706 83.6406 168.164 83.4531C168.628 83.2656 169.036 83 169.391 82.6562C169.745 82.3073 169.992 81.8984 170.133 81.4297L170.664 78.4609C170.69 78.0911 170.648 77.7448 170.539 77.4219C170.43 77.099 170.263 76.8177 170.039 76.5781C169.82 76.3385 169.557 76.151 169.25 76.0156C168.943 75.8802 168.604 75.8125 168.234 75.8125C167.719 75.8125 167.268 75.9323 166.883 76.1719C166.497 76.4062 166.169 76.7161 165.898 77.1016C165.628 77.4818 165.409 77.8984 165.242 78.3516C165.076 78.8047 164.953 79.25 164.875 79.6875ZM13.9141 101.414L14.6641 97.0469C14.7474 96.5677 14.7083 96.1615 14.5469 95.8281C14.3906 95.4948 14.1432 95.2422 13.8047 95.0703C13.4661 94.8984 13.0625 94.8125 12.5938 94.8125C12.1615 94.8125 11.7344 94.8932 11.3125 95.0547C10.8958 95.2109 10.5312 95.4427 10.2188 95.75C9.90625 96.0521 9.69792 96.4245 9.59375 96.8672L9.17188 96.8516C9.25 96.4609 9.39844 96.1146 9.61719 95.8125C9.84115 95.5052 10.112 95.2474 10.4297 95.0391C10.7474 94.8307 11.0911 94.6719 11.4609 94.5625C11.8359 94.4479 12.2135 94.3906 12.5938 94.3906C13.1354 94.3906 13.6094 94.4974 14.0156 94.7109C14.4219 94.9193 14.7214 95.224 14.9141 95.625C15.112 96.0208 15.1667 96.5 15.0781 97.0625L14.3516 101.297C14.3047 101.562 14.2682 101.833 14.2422 102.109C14.2214 102.385 14.2344 102.659 14.2812 102.93L14.2734 103H13.7969C13.776 102.734 13.7786 102.469 13.8047 102.203C13.8307 101.938 13.8672 101.674 13.9141 101.414ZM14.6328 98.2812L14.5938 98.7109H12.4844C12.1198 98.7161 11.7344 98.7552 11.3281 98.8281C10.9219 98.8958 10.5312 99.013 10.1562 99.1797C9.78125 99.3411 9.45833 99.5625 9.1875 99.8438C8.92188 100.12 8.7474 100.469 8.66406 100.891C8.59635 101.266 8.63802 101.591 8.78906 101.867C8.9401 102.143 9.16146 102.357 9.45312 102.508C9.74479 102.659 10.0651 102.737 10.4141 102.742C10.9714 102.747 11.487 102.651 11.9609 102.453C12.4401 102.25 12.8698 101.971 13.25 101.617C13.6302 101.258 13.9531 100.841 14.2188 100.367L14.3516 100.773C14.1641 101.138 13.9323 101.469 13.6562 101.766C13.3802 102.062 13.0703 102.315 12.7266 102.523C12.3828 102.727 12.0156 102.883 11.625 102.992C11.2396 103.102 10.8385 103.156 10.4219 103.156C9.97396 103.151 9.57292 103.057 9.21875 102.875C8.86458 102.688 8.59635 102.422 8.41406 102.078C8.23177 101.734 8.17708 101.328 8.25 100.859C8.32812 100.375 8.51042 99.9688 8.79688 99.6406C9.08333 99.3125 9.42969 99.0495 9.83594 98.8516C10.2474 98.6536 10.6823 98.5104 11.1406 98.4219C11.599 98.3333 12.0365 98.2865 12.4531 98.2812H14.6328ZM19.2812 91L17.2188 103H16.7969L18.8594 91H19.2812ZM26.8281 94.5469H27.2578L25.8281 102.883C25.7135 103.513 25.4974 104.096 25.1797 104.633C24.862 105.169 24.4479 105.599 23.9375 105.922C23.4271 106.245 22.8307 106.406 22.1484 106.406C21.7891 106.406 21.4557 106.349 21.1484 106.234C20.8411 106.12 20.5625 105.956 20.3125 105.742C20.0625 105.529 19.8464 105.271 19.6641 104.969L19.9844 104.703C20.2292 105.099 20.526 105.411 20.875 105.641C21.224 105.875 21.6406 105.992 22.125 105.992C22.7344 105.992 23.263 105.849 23.7109 105.562C24.1641 105.281 24.5312 104.904 24.8125 104.43C25.0938 103.961 25.2865 103.445 25.3906 102.883L26.5156 96.4062L26.8281 94.5469ZM20.2266 98.8516L20.25 98.6875C20.3385 98.1875 20.4766 97.6849 20.6641 97.1797C20.8568 96.6745 21.1068 96.2109 21.4141 95.7891C21.7214 95.3672 22.0938 95.0286 22.5312 94.7734C22.9688 94.5182 23.4766 94.3906 24.0547 94.3906C24.4401 94.3906 24.7995 94.4609 25.1328 94.6016C25.4714 94.7422 25.7656 94.9401 26.0156 95.1953C26.2656 95.4453 26.4583 95.7396 26.5938 96.0781C26.7292 96.4167 26.7891 96.7839 26.7734 97.1797L26.1875 100.625C26.0885 101.01 25.9167 101.359 25.6719 101.672C25.4271 101.979 25.138 102.245 24.8047 102.469C24.4766 102.688 24.1224 102.857 23.7422 102.977C23.362 103.096 22.9818 103.156 22.6016 103.156C22.0182 103.156 21.5495 103.021 21.1953 102.75C20.8464 102.474 20.5885 102.12 20.4219 101.688C20.2604 101.25 20.1693 100.781 20.1484 100.281C20.1276 99.7812 20.1536 99.3047 20.2266 98.8516ZM20.6875 98.6875L20.6562 98.8516C20.5885 99.2422 20.5547 99.6615 20.5547 100.109C20.5547 100.557 20.6146 100.979 20.7344 101.375C20.8594 101.771 21.0677 102.096 21.3594 102.352C21.6562 102.602 22.0651 102.729 22.5859 102.734C23.0599 102.734 23.526 102.641 23.9844 102.453C24.4427 102.266 24.8438 102 25.1875 101.656C25.5365 101.307 25.7812 100.898 25.9219 100.43L26.4531 97.4609C26.4792 97.0911 26.4375 96.7474 26.3281 96.4297C26.224 96.1068 26.0625 95.8255 25.8438 95.5859C25.6302 95.3411 25.3698 95.151 25.0625 95.0156C24.7604 94.8802 24.4245 94.8125 24.0547 94.8125C23.5391 94.8125 23.0859 94.9297 22.6953 95.1641C22.3099 95.3984 21.9818 95.7083 21.7109 96.0938C21.4453 96.4792 21.2266 96.8984 21.0547 97.3516C20.888 97.8047 20.7656 98.25 20.6875 98.6875ZM28.5 98.9375L28.5469 98.6094C28.6354 98.0729 28.7943 97.5547 29.0234 97.0547C29.2526 96.5495 29.5469 96.0964 29.9062 95.6953C30.2656 95.2943 30.6849 94.9766 31.1641 94.7422C31.6432 94.5078 32.1771 94.3906 32.7656 94.3906C33.3542 94.3906 33.8542 94.513 34.2656 94.7578C34.6771 94.9974 35.0026 95.3203 35.2422 95.7266C35.487 96.1328 35.6484 96.5859 35.7266 97.0859C35.8099 97.5859 35.8151 98.0938 35.7422 98.6094L35.6953 98.9375C35.6068 99.474 35.4479 99.9948 35.2188 100.5C34.9896 101 34.6953 101.451 34.3359 101.852C33.9818 102.253 33.5651 102.57 33.0859 102.805C32.6068 103.039 32.0729 103.156 31.4844 103.156C30.8958 103.156 30.3958 103.036 29.9844 102.797C29.5729 102.552 29.2448 102.227 29 101.82C28.7604 101.414 28.599 100.961 28.5156 100.461C28.4323 99.9609 28.4271 99.4531 28.5 98.9375ZM28.9766 98.6094L28.9219 98.9375C28.8542 99.3854 28.8516 99.8333 28.9141 100.281C28.9766 100.729 29.1094 101.138 29.3125 101.508C29.5208 101.878 29.8021 102.174 30.1562 102.398C30.5156 102.622 30.9557 102.734 31.4766 102.734C31.9974 102.734 32.4714 102.628 32.8984 102.414C33.3307 102.195 33.7083 101.906 34.0312 101.547C34.3542 101.182 34.6198 100.773 34.8281 100.32C35.0365 99.8672 35.1823 99.4062 35.2656 98.9375L35.3203 98.6094C35.388 98.1667 35.388 97.7214 35.3203 97.2734C35.2578 96.8255 35.125 96.4167 34.9219 96.0469C34.7188 95.6771 34.4375 95.3802 34.0781 95.1562C33.724 94.9271 33.2891 94.8125 32.7734 94.8125C32.2526 94.8125 31.7786 94.9219 31.3516 95.1406C30.9245 95.3542 30.5469 95.6432 30.2188 96.0078C29.8958 96.3724 29.6276 96.7812 29.4141 97.2344C29.2057 97.6823 29.0599 98.1406 28.9766 98.6094ZM38.5859 96.0156L37.3828 103H36.9609L38.4141 94.5469H38.8359L38.5859 96.0156ZM42.1016 94.4844L42 94.8438C41.9167 94.8333 41.8333 94.8255 41.75 94.8203C41.6667 94.8099 41.5807 94.8047 41.4922 94.8047C40.9922 94.8047 40.5495 94.9141 40.1641 95.1328C39.7786 95.3464 39.4453 95.6328 39.1641 95.9922C38.888 96.3516 38.6589 96.7474 38.4766 97.1797C38.2995 97.6068 38.1667 98.0339 38.0781 98.4609L37.7891 98.4844C37.8828 98 38.0208 97.5156 38.2031 97.0312C38.3906 96.5469 38.6328 96.1042 38.9297 95.7031C39.2318 95.3021 39.5938 94.9818 40.0156 94.7422C40.4427 94.5026 40.9401 94.3854 41.5078 94.3906C41.612 94.3906 41.7135 94.3984 41.8125 94.4141C41.9115 94.4297 42.0078 94.4531 42.1016 94.4844ZM44.125 94.5469L42.6719 103H42.25L43.7031 94.5469H44.125ZM43.9531 91.8906C43.9688 91.7865 44.0234 91.6901 44.1172 91.6016C44.2161 91.513 44.3203 91.4688 44.4297 91.4688C44.5495 91.4688 44.6458 91.5156 44.7188 91.6094C44.7969 91.7031 44.8255 91.8073 44.8047 91.9219C44.7891 92.026 44.7318 92.1224 44.6328 92.2109C44.5339 92.2943 44.4297 92.3359 44.3203 92.3359C44.2057 92.3359 44.1094 92.2917 44.0312 92.2031C43.9583 92.1094 43.9323 92.0052 43.9531 91.8906ZM49.5938 94.5469L49.5391 94.9766H45.7266L45.7891 94.5469H49.5938ZM47.7031 92.2656H48.1328L46.625 100.977C46.5781 101.247 46.5599 101.518 46.5703 101.789C46.5807 102.055 46.6562 102.279 46.7969 102.461C46.9375 102.638 47.1771 102.729 47.5156 102.734C47.6615 102.734 47.8047 102.727 47.9453 102.711C48.0859 102.695 48.2266 102.68 48.3672 102.664L48.3828 103.062C48.2422 103.099 48.1016 103.122 47.9609 103.133C47.8203 103.148 47.6771 103.156 47.5312 103.156C47.0885 103.151 46.763 103.047 46.5547 102.844C46.3464 102.635 46.2188 102.367 46.1719 102.039C46.1302 101.706 46.1406 101.352 46.2031 100.977L47.7031 92.2656ZM52.7656 91L50.6953 103H50.2734L52.3438 91H52.7656ZM51.4844 98.0469L51.3281 97.5938C51.4531 97.1823 51.6302 96.7865 51.8594 96.4062C52.0938 96.026 52.3698 95.6849 52.6875 95.3828C53.0104 95.0807 53.3698 94.8411 53.7656 94.6641C54.1615 94.487 54.5885 94.3958 55.0469 94.3906C55.526 94.3906 55.9167 94.474 56.2188 94.6406C56.526 94.8073 56.7578 95.0391 56.9141 95.3359C57.0755 95.6276 57.1719 95.9635 57.2031 96.3438C57.2344 96.7188 57.2188 97.1146 57.1562 97.5312L56.2109 103H55.7891L56.7344 97.5312C56.8125 97.0573 56.8229 96.612 56.7656 96.1953C56.7083 95.7786 56.5443 95.4427 56.2734 95.1875C56.0026 94.9271 55.5885 94.7995 55.0312 94.8047C54.5885 94.8099 54.1771 94.9062 53.7969 95.0938C53.4167 95.2812 53.0729 95.5312 52.7656 95.8438C52.4583 96.151 52.1953 96.4974 51.9766 96.8828C51.7578 97.263 51.5938 97.651 51.4844 98.0469ZM60.2656 96.3594L59.1172 103H58.6953L60.1406 94.5469H60.5703L60.2656 96.3594ZM59.9219 98.0469L59.7656 97.5938C59.8906 97.1823 60.0677 96.7865 60.2969 96.4062C60.526 96.026 60.7995 95.6849 61.1172 95.3828C61.4349 95.0807 61.7891 94.8411 62.1797 94.6641C62.5755 94.487 63.0026 94.3958 63.4609 94.3906C63.9245 94.3906 64.3099 94.4661 64.6172 94.6172C64.9245 94.7682 65.1615 94.9818 65.3281 95.2578C65.5 95.5286 65.6068 95.8464 65.6484 96.2109C65.6953 96.5703 65.6849 96.9583 65.6172 97.375L64.6484 103H64.2344L65.2031 97.375C65.2812 96.901 65.2812 96.4688 65.2031 96.0781C65.1302 95.6875 64.9531 95.3776 64.6719 95.1484C64.3906 94.9141 63.9818 94.7995 63.4453 94.8047C63.0026 94.8099 62.5911 94.9062 62.2109 95.0938C61.8359 95.2812 61.4948 95.5312 61.1875 95.8438C60.8854 96.1562 60.6276 96.5026 60.4141 96.8828C60.2005 97.263 60.0365 97.651 59.9219 98.0469ZM65.625 97.375L65.3672 97.1016C65.5026 96.7161 65.6901 96.3594 65.9297 96.0312C66.1693 95.6979 66.4479 95.4115 66.7656 95.1719C67.0885 94.9271 67.4401 94.737 67.8203 94.6016C68.2057 94.4661 68.6068 94.3958 69.0234 94.3906C69.5026 94.3906 69.8958 94.474 70.2031 94.6406C70.5104 94.8073 70.7448 95.0365 70.9062 95.3281C71.0677 95.6198 71.1667 95.9557 71.2031 96.3359C71.2396 96.7161 71.224 97.1146 71.1562 97.5312L70.2109 103H69.7969L70.7344 97.5312C70.8125 97.0573 70.8203 96.612 70.7578 96.1953C70.7005 95.7734 70.5339 95.4349 70.2578 95.1797C69.987 94.9193 69.5703 94.7943 69.0078 94.8047C68.6276 94.8151 68.2604 94.8854 67.9062 95.0156C67.5521 95.1458 67.224 95.3281 66.9219 95.5625C66.6198 95.7917 66.3568 96.0625 66.1328 96.375C65.9089 96.6823 65.7396 97.0156 65.625 97.375Z" fill="white"/>
</g>
<path d="M259.251 78.5544L259.654 86.9073L259.242 86.9986L258.839 78.6458L259.251 78.5544ZM259.216 89.8052C259.209 89.7001 259.241 89.5942 259.314 89.4874C259.391 89.3796 259.483 89.3138 259.59 89.2901C259.702 89.2653 259.804 89.2908 259.895 89.3665C259.992 89.4412 260.045 89.5361 260.054 89.6514C260.062 89.7564 260.027 89.8629 259.949 89.9708C259.871 90.0735 259.778 90.1368 259.671 90.1604C259.554 90.1864 259.45 90.164 259.36 90.0933C259.269 90.0176 259.221 89.9215 259.216 89.8052Z" fill="#EB5757"/>
<path d="M272.757 87.0436L272.355 86.9163C272.531 86.5775 272.731 86.2807 272.953 86.026C273.18 85.7728 273.433 85.5516 273.712 85.3626C273.992 85.1686 274.31 84.9938 274.665 84.8385C275.052 84.6705 275.415 84.4901 275.754 84.2974C276.1 84.1011 276.413 83.8706 276.693 83.6057C276.972 83.3408 277.211 83.0122 277.408 82.6199C277.605 82.2326 277.707 81.8501 277.716 81.4724C277.731 81.0913 277.635 80.7534 277.429 80.4587C277.225 80.1591 276.896 79.9395 276.443 79.7999C275.979 79.6623 275.534 79.6419 275.109 79.7387C274.685 79.8305 274.299 80.0149 273.951 80.292C273.604 80.5641 273.314 80.8993 273.082 81.2977L272.67 81.1757C272.928 80.7089 273.257 80.3146 273.656 79.9929C274.062 79.6678 274.513 79.4482 275.008 79.3342C275.504 79.2203 276.019 79.2424 276.553 79.4007C277.082 79.5575 277.474 79.812 277.728 80.1644C277.987 80.5182 278.12 80.924 278.125 81.382C278.132 81.8349 278.027 82.2925 277.808 82.7547C277.602 83.177 277.342 83.5401 277.029 83.844C276.722 84.1494 276.375 84.4132 275.988 84.6356C275.608 84.8544 275.206 85.0476 274.782 85.2152C274.32 85.3989 273.925 85.6405 273.598 85.9399C273.271 86.2344 272.991 86.6023 272.757 87.0436ZM270.942 89.3495C270.986 89.254 271.066 89.1772 271.181 89.1189C271.301 89.0621 271.414 89.0493 271.518 89.0803C271.633 89.1143 271.712 89.1867 271.756 89.2973C271.804 89.4093 271.802 89.5173 271.749 89.6213C271.705 89.7167 271.622 89.7928 271.502 89.8496C271.384 89.9014 271.272 89.9118 271.167 89.8807C271.057 89.8482 270.978 89.7784 270.928 89.6713C270.885 89.5607 270.889 89.4534 270.942 89.3495Z" fill="#418DD9"/>
<path fill-rule="evenodd" clip-rule="evenodd" d="M266.223 110.772C267.558 109.223 268.462 107.326 268.311 105.199C267.876 99.0718 259.245 100.42 257.566 103.512C255.887 106.605 256.087 114.449 258.256 115.002C259.122 115.222 260.965 114.682 262.841 113.565L261.664 121.798H268.617L266.223 110.772Z" fill="#B28B67"/>
<path fill-rule="evenodd" clip-rule="evenodd" d="M271.342 103.159C271.567 102.939 271.689 102.626 271.795 102.327C271.905 102.018 272.012 101.705 272.085 101.383C272.231 100.739 272.233 99.9981 271.768 99.4981C271.395 99.0971 270.836 98.9172 270.319 98.8781C269.975 98.8521 269.622 98.8997 269.292 99.0068C268.965 99.113 268.683 99.3248 268.366 99.4563C268.354 98.7623 268.234 98.0362 267.877 97.4436C267.535 96.8735 266.988 96.5535 266.366 96.4689C265.727 96.382 265.096 96.5298 264.524 96.8354C264.381 96.912 264.239 96.9922 264.103 97.083C263.989 97.159 263.871 97.2505 263.738 97.2814C263.589 97.3159 263.515 97.2311 263.419 97.1238C263.305 96.9982 263.178 96.8874 263.043 96.7893C262.445 96.3554 261.662 96.177 260.97 96.4371C260.651 96.5569 260.341 96.7604 260.124 97.0408C259.932 97.2908 259.794 97.6873 259.528 97.8615C259.415 97.9354 259.335 97.8375 259.232 97.7651C259.078 97.6563 258.931 97.5363 258.774 97.4305C258.555 97.2818 258.317 97.1706 258.062 97.1124C257.69 97.0272 257.175 97.0472 257.068 97.5295C257.028 97.7107 257.059 97.9045 257.072 98.0871C257.089 98.3378 257.108 98.5884 257.13 98.8387C257.147 99.0287 257.168 99.2123 257.204 99.3989C257.223 99.4984 257.284 99.6839 257.241 99.7835C257.187 99.908 256.938 99.8372 256.832 99.8415C256.621 99.8501 256.41 99.8865 256.216 99.9753C256.066 100.044 255.907 100.145 255.844 100.316C255.805 100.42 255.815 100.528 255.833 100.636C255.856 100.765 255.83 100.834 255.814 100.964C255.532 100.827 254.554 100.522 254.431 101.022C254.39 101.188 254.483 101.376 254.554 101.516C254.679 101.763 254.843 101.988 255.01 102.202C255.359 102.65 255.776 103.036 256.224 103.366C255.699 103.597 255.562 104.277 256.016 104.683C256.217 104.862 256.487 104.902 256.74 104.89C256.833 104.886 256.967 104.851 257.039 104.867C257.079 104.875 257.121 104.908 257.175 104.912C257.533 104.936 257.936 104.851 258.285 104.773C258.908 104.633 259.497 104.341 259.979 103.898C260.102 103.784 260.204 103.718 260.37 103.72C260.516 103.721 260.659 103.761 260.804 103.764C261.189 103.774 261.536 103.588 261.894 103.464C261.916 103.942 262.053 104.467 262.251 104.896C262.412 105.247 262.748 105.297 263.079 105.328C264.136 105.426 265.197 105.317 266.255 105.318C265.231 105.547 264.172 105.641 263.156 105.911C262.697 106.032 263.048 106.338 263.244 106.55C263.567 106.899 263.808 107.331 263.974 107.787C264.475 107.141 265.361 106.716 266.146 106.914C267.013 107.133 267.624 108.292 267.069 109.126C266.748 109.609 266.166 109.796 265.682 110.004C266.06 110.391 266.151 110.964 266.378 111.447C266.49 111.684 266.647 111.953 266.898 112.036C266.991 112.067 267.099 112.07 267.173 112.144C267.263 112.237 267.285 112.34 267.4 112.42C267.862 112.737 268.583 112.712 268.992 112.298C269.362 111.924 269.266 111.332 268.957 110.952C269.449 110.75 270.345 110.489 270.149 109.732C271.215 109.662 273.803 107.954 272.373 106.705C273.158 106.267 273.879 105.195 273.375 104.251C272.986 103.523 272.083 103.198 271.342 103.159Z" fill="#CBAC4F"/>
<path fill-rule="evenodd" clip-rule="evenodd" d="M281.184 157.587H258.802L255.869 193.089H289.187L281.184 157.587Z" fill="#C5CFD6"/>
<path fill-rule="evenodd" clip-rule="evenodd" d="M281.184 157.587H274.301L270.18 193.089H289.187L281.184 157.587Z" fill="black" fill-opacity="0.1"/>
<path fill-rule="evenodd" clip-rule="evenodd" d="M233.284 151.504C230.898 150.088 226.894 151.908 226.897 153.933C226.905 159.992 232.501 188.551 232.793 190.357C233.086 192.162 236.215 192.639 236.398 190.363C236.688 186.741 237.227 174.202 236.687 168.398C236.465 166.003 236.225 163.721 235.989 161.686C238.926 166.926 243.467 174.429 249.613 184.194L252.95 182.688C250.33 174.157 248.181 168.134 246.504 164.62C243.633 158.603 240.941 153.45 239.808 151.635C238.026 148.78 234.924 149.776 233.284 151.504Z" fill="#B28B67"/>
<path fill-rule="evenodd" clip-rule="evenodd" d="M252.711 177.95L241.259 151.141C238.516 146.78 230.824 152.028 231.759 154.558C233.884 160.301 244.686 178.892 245.319 180.603L252.711 177.95Z" fill="#1F28CF"/>
<path fill-rule="evenodd" clip-rule="evenodd" d="M253.337 181.002C254.053 181.586 254.518 182.062 254.734 182.431C254.996 182.88 255.304 183.577 255.657 184.524C255.133 184.823 250.42 187.508 241.52 192.58C240.447 191.584 240.279 190.812 241.014 190.265C241.749 189.718 242.356 189.256 242.834 188.88L247.704 182.227C247.797 182.099 247.978 182.071 248.108 182.165C248.11 182.166 248.113 182.168 248.115 182.17L249.132 182.946C250.064 182.868 250.758 182.699 251.216 182.438C251.589 182.225 252.015 181.783 252.497 181.111L252.497 181.111C252.681 180.853 253.043 180.793 253.304 180.977C253.316 180.985 253.327 180.994 253.337 181.002Z" fill="#E4E4E4"/>
<path fill-rule="evenodd" clip-rule="evenodd" d="M237.131 188.909C237.455 189.765 237.617 190.404 237.617 190.829C237.617 191.345 237.53 192.099 237.356 193.089C236.75 193.089 231.303 193.089 221.015 193.089C220.59 191.702 220.835 190.953 221.75 190.842C222.665 190.732 223.425 190.632 224.03 190.543L231.625 187.196C231.772 187.132 231.943 187.197 232.008 187.341C232.009 187.344 232.01 187.346 232.011 187.349L232.499 188.519C233.346 188.91 234.035 189.105 234.564 189.105C234.994 189.105 235.588 188.933 236.347 188.59L236.347 188.59C236.637 188.458 236.981 188.584 237.115 188.872C237.12 188.884 237.126 188.897 237.131 188.909Z" fill="#E4E4E4"/>
<path fill-rule="evenodd" clip-rule="evenodd" d="M226.094 155.993C226.094 163.599 229.75 181.342 229.752 183.017L237.617 183.023C236.466 167.191 236.057 159.19 236.392 159.019C236.894 158.763 256.977 161.001 263 161.001C271.686 161.001 275.279 155.588 275.57 145.562H258.365C254.862 145.932 236.589 149.574 229.802 150.826C226.897 151.362 226.094 153.897 226.094 155.993Z" fill="#2B44FF"/>
<path fill-rule="evenodd" clip-rule="evenodd" d="M255.684 127.724L245.628 122.282C243.956 120.319 242.308 118.795 240.685 117.709C240.189 117.505 239.322 117.381 240.133 118.803C240.944 120.226 241.733 121.758 241.319 122.197C240.906 122.635 239.876 122.023 239.383 122.751C239.054 123.236 240.815 124.003 244.664 125.052L251.971 131.663L255.684 127.724ZM239.935 132.317L235.517 129.919C234.898 127.588 234.157 126.415 233.295 126.401C232.632 126.096 233.786 129.041 232.53 128.786C231.275 128.531 228.211 126.279 227.683 126.736C226.902 127.412 227.599 129.489 228.419 130.522C229.953 132.454 231.223 133.114 234.361 133.979C236.002 134.431 237.776 135.337 239.683 136.697L239.935 132.317Z" fill="#997659"/>
<path fill-rule="evenodd" clip-rule="evenodd" d="M260.582 126.512C257.06 126.475 252.363 125.74 247.351 122.596L245.383 126.934C248.84 130.324 253.7 133.11 257.951 132.992C261.3 132.899 263.012 128.895 260.582 126.512Z" fill="#2026A2"/>
<path fill-rule="evenodd" clip-rule="evenodd" d="M255.839 133.468C252.1 134.39 245.829 133.303 237.027 130.208C234.844 134.671 233.834 137.853 233.999 139.754C241.55 143.652 248.022 145.39 253.354 145.505C253.184 148.631 253.569 151.606 254.863 154.324C257.522 159.913 273.095 154.737 278.331 155.756C281.609 145.233 275.27 140.956 275.265 134.223C275.259 126.849 269.268 115.499 268.386 115.499H260.347C259.904 121.13 257.671 127.337 255.839 133.468Z" fill="#1F28CF"/>
<defs>
<filter id="filter0_d_399_757" x="4.14062" y="72" width="171.914" height="42.4062" filterUnits="userSpaceOnUse" color-interpolation-filters="sRGB">
<feFlood flood-opacity="0" result="BackgroundImageFix"/>
<feColorMatrix in="SourceAlpha" type="matrix" values="0 0 0 0 0 0 0 0 0 0 0 0 0 0 0 0 0 0 127 0" result="hardAlpha"/>
<feOffset dy="4"/>
<feGaussianBlur stdDeviation="2"/>
<feComposite in2="hardAlpha" operator="out"/>
<feColorMatrix type="matrix" values="0 0 0 0 0 0 0 0 0 0 0 0 0 0 0 0 0 0 0.25 0"/>
<feBlend mode="normal" in2="BackgroundImageFix" result="effect1_dropShadow_399_757"/>
<feBlend mode="normal" in="SourceGraphic" in2="effect1_dropShadow_399_757" result="shape"/>
</filter>
</defs>
</svg>
