<svg width="31" height="31" viewBox="0 0 31 31" fill="none" xmlns="http://www.w3.org/2000/svg">
<path d="M17.8514 30.6262C17.7234 30.6472 17.5954 30.6662 17.4674 30.6832C17.5954 30.6662 17.7244 30.6462 17.8514 30.6262Z" fill="white"/>
<path d="M18.1575 30.5742L17.9745 30.6062L18.1575 30.5742Z" fill="white"/>
<path d="M17.1254 30.7263C16.9764 30.7433 16.8254 30.7583 16.6754 30.7703C16.8264 30.7583 16.9754 30.7433 17.1254 30.7263Z" fill="white"/>
<path d="M17.4194 30.6902L17.2035 30.7172L17.4194 30.6902Z" fill="white"/>
<path d="M18.5745 30.4912L18.4135 30.5252L18.5745 30.4912Z" fill="white"/>
<path d="M19.6085 30.2342L19.4785 30.2702L19.6085 30.2342Z" fill="white"/>
<path d="M19.2954 30.3162L19.1534 30.3532L19.2954 30.3162Z" fill="white"/>
<path d="M18.8865 30.4222L18.7355 30.4562L18.8865 30.4222Z" fill="white"/>
<path d="M16.6704 30.7712L16.4284 30.7892L16.6704 30.7712Z" fill="white"/>
<path d="M30.6905 15.5182C30.6905 12.4906 29.7927 9.53096 28.1106 7.01357C26.4286 4.49618 24.0377 2.53408 21.2406 1.37545C18.4434 0.216823 15.3655 -0.0863066 12.396 0.504356C9.42656 1.09502 6.69893 2.55295 4.55807 4.69381C2.4172 6.83467 0.959276 9.5623 0.368614 12.5318C-0.222049 15.5012 0.0810812 18.5792 1.23971 21.3764C2.39833 24.1735 4.36038 26.5643 6.87777 28.2464C9.39516 29.9284 12.3548 30.8263 15.3825 30.8263C15.4725 30.8263 15.5615 30.8263 15.6515 30.8263V18.9102H12.3624V15.0772H15.6515V12.2572C15.6515 8.98623 17.6515 7.2062 20.5655 7.2062C21.5505 7.20263 22.535 7.25304 23.5145 7.3572V10.7752H21.5025C19.9145 10.7752 19.6024 11.5302 19.6024 12.6372V15.0782H23.4025L22.9074 18.9112H19.6074V30.2392C22.801 29.3206 25.6093 27.3882 27.6083 24.7336C29.6073 22.079 30.6888 18.8463 30.6895 15.5232L30.6905 15.5182Z" fill="white"/>
<path d="M16.3945 30.7913C16.2351 30.8013 16.0751 30.8092 15.9144 30.8152C16.0751 30.8099 16.2351 30.8019 16.3945 30.7913Z" fill="white"/>
<path d="M15.9064 30.8152L15.6524 30.8212L15.9064 30.8152Z" fill="white"/>
</svg>
