<svg width="89" height="43" viewBox="0 0 89 43" fill="none" xmlns="http://www.w3.org/2000/svg">
<path d="M5.85224 15.082V19.982H12.4322V23.09H5.85224V28.27H13.2722V31.462H1.93224V11.89H13.2722V15.082H5.85224ZM15.8266 23.65C15.8266 22.082 16.1346 20.6914 16.7506 19.478C17.3853 18.2647 18.2439 17.3314 19.3266 16.678C20.4093 16.0247 21.6133 15.698 22.9386 15.698C23.9466 15.698 24.9079 15.922 25.8226 16.37C26.7373 16.7994 27.4653 17.378 28.0066 18.106V10.742H31.9826V31.462H28.0066V29.166C27.5213 29.9314 26.8399 30.5474 25.9626 31.014C25.0853 31.4807 24.0679 31.714 22.9106 31.714C21.6039 31.714 20.4093 31.378 19.3266 30.706C18.2439 30.034 17.3853 29.0914 16.7506 27.878C16.1346 26.646 15.8266 25.2367 15.8266 23.65ZM28.0346 23.706C28.0346 22.754 27.8479 21.942 27.4746 21.27C27.1013 20.5794 26.5973 20.0567 25.9626 19.702C25.3279 19.3287 24.6466 19.142 23.9186 19.142C23.1906 19.142 22.5186 19.3194 21.9026 19.674C21.2866 20.0287 20.7826 20.5514 20.3906 21.242C20.0173 21.914 19.8306 22.7167 19.8306 23.65C19.8306 24.5834 20.0173 25.4047 20.3906 26.114C20.7826 26.8047 21.2866 27.3367 21.9026 27.71C22.5373 28.0834 23.2093 28.27 23.9186 28.27C24.6466 28.27 25.3279 28.0927 25.9626 27.738C26.5973 27.3647 27.1013 26.842 27.4746 26.17C27.8479 25.4794 28.0346 24.658 28.0346 23.706ZM50.4552 15.95V31.462H46.5072V29.502C46.0032 30.174 45.3405 30.706 44.5192 31.098C43.7165 31.4714 42.8392 31.658 41.8872 31.658C40.6738 31.658 39.6005 31.406 38.6672 30.902C37.7338 30.3794 36.9965 29.6234 36.4552 28.634C35.9325 27.626 35.6712 26.4314 35.6712 25.05V15.95H39.5912V24.49C39.5912 25.722 39.8992 26.674 40.5152 27.346C41.1312 27.9994 41.9712 28.326 43.0352 28.326C44.1178 28.326 44.9672 27.9994 45.5832 27.346C46.1992 26.674 46.5072 25.722 46.5072 24.49V15.95H50.4552ZM58.1869 11.918V24.014C58.1869 25.3394 58.5322 26.3567 59.2229 27.066C59.9135 27.7567 60.8842 28.102 62.1349 28.102C63.4042 28.102 64.3842 27.7567 65.0749 27.066C65.7655 26.3567 66.1109 25.3394 66.1109 24.014V11.918H70.0589V23.986C70.0589 25.6474 69.6949 27.0567 68.9669 28.214C68.2575 29.3527 67.2962 30.2114 66.0829 30.79C64.8882 31.3687 63.5535 31.658 62.0789 31.658C60.6229 31.658 59.2975 31.3687 58.1029 30.79C56.9269 30.2114 55.9935 29.3527 55.3029 28.214C54.6122 27.0567 54.2669 25.6474 54.2669 23.986V11.918H58.1869ZM80.5943 31.658C79.2316 31.658 77.9996 31.4247 76.8983 30.958C75.8156 30.4914 74.957 29.8194 74.3223 28.942C73.6876 28.0647 73.361 27.0287 73.3423 25.834H77.5423C77.5983 26.6367 77.8783 27.2714 78.3823 27.738C78.905 28.2047 79.6143 28.438 80.5103 28.438C81.425 28.438 82.1436 28.2234 82.6663 27.794C83.189 27.346 83.4503 26.7674 83.4503 26.058C83.4503 25.4794 83.273 25.0034 82.9183 24.63C82.5636 24.2567 82.1156 23.9674 81.5743 23.762C81.0516 23.538 80.3236 23.2954 79.3903 23.034C78.121 22.6607 77.085 22.2967 76.2823 21.942C75.4983 21.5687 74.817 21.018 74.2383 20.29C73.6783 19.5434 73.3983 18.554 73.3983 17.322C73.3983 16.1647 73.6876 15.1567 74.2663 14.298C74.845 13.4394 75.657 12.786 76.7023 12.338C77.7476 11.8714 78.9423 11.638 80.2863 11.638C82.3023 11.638 83.9356 12.1327 85.1863 13.122C86.4556 14.0927 87.1556 15.4554 87.2863 17.21H82.9743C82.937 16.538 82.6476 15.9874 82.1063 15.558C81.5836 15.11 80.8836 14.886 80.0063 14.886C79.241 14.886 78.625 15.082 78.1583 15.474C77.7103 15.866 77.4863 16.4354 77.4863 17.182C77.4863 17.7047 77.6543 18.1434 77.9903 18.498C78.345 18.834 78.7743 19.114 79.2783 19.338C79.801 19.5434 80.529 19.786 81.4623 20.066C82.7316 20.4394 83.7676 20.8127 84.5703 21.186C85.373 21.5594 86.0636 22.1194 86.6423 22.866C87.221 23.6127 87.5103 24.5927 87.5103 25.806C87.5103 26.8514 87.2396 27.822 86.6983 28.718C86.157 29.614 85.3636 30.3327 84.3183 30.874C83.273 31.3967 82.0316 31.658 80.5943 31.658Z" fill="#00BCD4"/>
</svg>
