<svg width="99" height="131" viewBox="0 0 99 131" fill="none" xmlns="http://www.w3.org/2000/svg">
<path d="M96.539 97.7699V129.145H17.934C8.97796 129.145 1.69098 122.107 1.69098 113.458C1.69098 104.809 8.97796 97.7709 17.934 97.7709L96.539 97.7699Z" fill="#F2F2F2"/>
<path d="M98.469 128.903C98.469 129.223 98.3418 129.53 98.1154 129.756C97.8891 129.983 97.5821 130.11 97.262 130.11H16.532C12.1474 130.11 7.94242 128.368 4.84207 125.268C1.74172 122.167 -3.05176e-05 117.962 -3.05176e-05 113.578C-3.05176e-05 109.193 1.74172 104.988 4.84207 101.888C7.94242 98.7877 12.1474 97.0459 16.532 97.0459H97.262C97.5759 97.055 97.874 97.1861 98.0929 97.4113C98.3118 97.6366 98.4342 97.9383 98.4342 98.2524C98.4342 98.5665 98.3118 98.8683 98.0929 99.0935C97.874 99.3188 97.5759 99.4499 97.262 99.459H16.532C14.6679 99.4433 12.8192 99.7968 11.0925 100.499C9.36577 101.202 7.79526 102.239 6.47159 103.552C5.14791 104.864 4.09727 106.426 3.38028 108.147C2.66329 109.868 2.29413 111.713 2.29413 113.577C2.29413 115.442 2.66329 117.287 3.38028 119.008C4.09727 120.729 5.14791 122.29 6.47159 123.603C7.79526 124.916 9.36577 125.953 11.0925 126.656C12.8192 127.358 14.6679 127.712 16.532 127.696H97.262C97.5821 127.696 97.8891 127.823 98.1154 128.049C98.3418 128.276 98.469 128.583 98.469 128.903Z" fill="#FFD297"/>
<path d="M96.5389 105.011H12.0689C12.0049 105.011 11.9435 104.985 11.8982 104.94C11.8529 104.895 11.8275 104.833 11.8275 104.769C11.8275 104.705 11.8529 104.644 11.8982 104.599C11.9435 104.553 12.0049 104.528 12.0689 104.528H96.5389C96.603 104.528 96.6644 104.553 96.7097 104.599C96.755 104.644 96.7805 104.705 96.7805 104.769C96.7805 104.833 96.755 104.895 96.7097 104.94C96.6644 104.985 96.603 105.011 96.5389 105.011Z" fill="#CCCCCC"/>
<path d="M96.5389 110.803H12.0689C12.0049 110.803 11.9435 110.777 11.8982 110.732C11.8529 110.687 11.8275 110.625 11.8275 110.561C11.8275 110.497 11.8529 110.436 11.8982 110.391C11.9435 110.345 12.0049 110.32 12.0689 110.32H96.5389C96.603 110.32 96.6644 110.345 96.7097 110.391C96.755 110.436 96.7805 110.497 96.7805 110.561C96.7805 110.625 96.755 110.687 96.7097 110.732C96.6644 110.777 96.603 110.803 96.5389 110.803Z" fill="#CCCCCC"/>
<path d="M96.5389 116.595H12.0689C12.0049 116.595 11.9435 116.569 11.8982 116.524C11.8529 116.479 11.8275 116.418 11.8275 116.353C11.8275 116.289 11.8529 116.228 11.8982 116.183C11.9435 116.137 12.0049 116.112 12.0689 116.112H96.5389C96.603 116.112 96.6644 116.137 96.7097 116.183C96.755 116.228 96.7805 116.289 96.7805 116.353C96.7805 116.418 96.755 116.479 96.7097 116.524C96.6644 116.569 96.603 116.595 96.5389 116.595Z" fill="#CCCCCC"/>
<path d="M96.5389 122.388H12.0689C12.0049 122.388 11.9435 122.362 11.8982 122.317C11.8529 122.272 11.8275 122.21 11.8275 122.146C11.8275 122.082 11.8529 122.021 11.8982 121.976C11.9435 121.93 12.0049 121.905 12.0689 121.905H96.5389C96.603 121.905 96.6644 121.93 96.7097 121.976C96.755 122.021 96.7805 122.082 96.7805 122.146C96.7805 122.21 96.755 122.272 96.7097 122.317C96.6644 122.362 96.603 122.388 96.5389 122.388Z" fill="#CCCCCC"/>
<path d="M63.7079 94.4729H60.9489L59.637 83.8309H63.709L63.7079 94.4729Z" fill="#FFB8B8"/>
<path d="M58.977 93.6839H64.298V97.0339H55.627C55.627 96.1454 55.9799 95.2933 56.6082 94.6651C57.2364 94.0369 58.0885 93.6839 58.977 93.6839Z" fill="#2F2E41"/>
<path d="M35.52 94.4729H32.761L31.449 83.8309H35.521L35.52 94.4729Z" fill="#FFB8B8"/>
<path d="M30.79 93.6839H36.111V97.0339H27.44C27.44 96.1454 27.7929 95.2933 28.4212 94.6651C29.0494 94.0369 29.9015 93.6839 30.79 93.6839Z" fill="#2F2E41"/>
<path d="M44.736 15.5319V14.3249C44.736 13.3028 44.9373 12.2908 45.3284 11.3465C45.7195 10.4022 46.2928 9.54422 47.0155 8.8215C47.7383 8.09878 48.5963 7.5255 49.5405 7.13437C50.4848 6.74324 51.4969 6.54192 52.519 6.54192C54.5831 6.54192 56.5628 7.36191 58.0224 8.8215C59.482 10.2811 60.3019 12.2607 60.3019 14.3249V15.5319C60.3019 17.0201 59.7108 18.4472 58.6585 19.4995C57.6063 20.5518 56.1791 21.1429 54.691 21.1429H50.347C48.8588 21.1429 47.4316 20.5518 46.3794 19.4995C45.3271 18.4472 44.736 17.0201 44.736 15.5319Z" fill="#2F2E41"/>
<path d="M52.52 21.5589C55.7939 21.5589 58.448 18.9049 58.448 15.6309C58.448 12.357 55.7939 9.70291 52.52 9.70291C49.246 9.70291 46.592 12.357 46.592 15.6309C46.592 18.9049 49.246 21.5589 52.52 21.5589Z" fill="#FFB8B8"/>
<path d="M20.277 36.0029C20.5172 35.7756 20.8043 35.6037 21.1181 35.4993C21.4319 35.3949 21.7648 35.3606 22.0933 35.3987C22.4218 35.4368 22.738 35.5465 23.0196 35.72C23.3011 35.8935 23.5412 36.1266 23.723 36.4029L28.804 35.4419L30.141 38.3869L22.946 39.6439C22.4609 39.9187 21.8918 40.0059 21.3467 39.8888C20.8016 39.7716 20.3185 39.4584 19.9891 39.0086C19.6597 38.5588 19.5069 38.0037 19.5598 37.4487C19.6127 36.8937 19.8675 36.3774 20.276 35.9979L20.277 36.0029Z" fill="#FFB8B8"/>
<path d="M47.898 25.2909L47.964 25.3909L39.631 30.8799L25.571 35.3699C25.3851 35.4298 25.2256 35.5522 25.1195 35.7162C25.0135 35.8802 24.9673 36.0758 24.989 36.2699L25.296 38.9119C25.3095 39.0289 25.3474 39.1417 25.4071 39.2432C25.4668 39.3446 25.5471 39.4325 25.6427 39.5011C25.7384 39.5698 25.8473 39.6177 25.9626 39.6417C26.0778 39.6658 26.1968 39.6655 26.312 39.6409L39.545 36.8049C40.1853 36.6685 40.7908 36.402 41.324 36.0219L50.6849 29.3619C51.2117 29.0011 51.5735 28.4458 51.6908 27.8182C51.8081 27.1906 51.6713 26.5421 51.3105 26.0154C50.9496 25.4887 50.3944 25.1269 49.7668 25.0096C49.1392 24.8923 48.4907 25.0291 47.964 25.3899L47.898 25.2909Z" fill="white"/>
<path d="M60.9979 91.4529C60.7859 91.4533 60.5784 91.3918 60.4008 91.276C60.2232 91.1602 60.0831 90.9951 59.9979 90.8009L47.349 59.5469C47.3195 59.4791 47.2699 59.4219 47.2069 59.3831C47.1439 59.3443 47.0706 59.3257 46.9967 59.3298C46.9229 59.334 46.8521 59.3606 46.7938 59.4062C46.7356 59.4518 46.6927 59.5142 46.6709 59.5849L36.353 90.0109C36.3097 90.1527 36.2378 90.2841 36.1418 90.397C36.0458 90.5099 35.9277 90.6021 35.7948 90.6676C35.6618 90.7332 35.5169 90.7709 35.3689 90.7783C35.2208 90.7858 35.0728 90.7628 34.9339 90.7109L31.474 89.4109C31.286 89.3413 31.121 89.2208 30.9974 89.063C30.8738 88.9051 30.7964 88.7161 30.7739 88.5169C29.2169 74.9549 42.7929 40.7239 42.9299 40.3789L42.9679 40.2789L55.3429 43.0169L55.3689 43.0449C60.3059 48.4309 64.3689 82.4039 65.1279 89.1599C65.1565 89.404 65.101 89.6505 64.9707 89.8588C64.8404 90.0671 64.6429 90.2248 64.411 90.3059L61.3559 91.3859C61.2413 91.4284 61.1202 91.4511 60.9979 91.4529Z" fill="#374B5C"/>
<path d="M50.3349 44.1239C47.3349 44.1239 43.994 43.5239 42.965 41.0589L42.9409 41.0019L42.9729 40.9489C43.7849 39.6159 44.8589 37.3429 44.2819 36.9169C43.6876 36.4232 43.2262 35.7885 42.94 35.0708C42.6537 34.3531 42.5516 33.5752 42.6429 32.8079C42.7264 30.7683 43.4383 28.8042 44.6812 27.1849C45.9241 25.5655 47.6372 24.3699 49.586 23.7619C50.7153 23.4006 51.8645 23.1047 53.0279 22.8759C53.8762 22.7047 54.7519 22.7236 55.592 22.9311C56.4321 23.1385 57.2159 23.5295 57.8869 24.0759C58.5673 24.6253 59.1174 25.3187 59.4978 26.1061C59.8782 26.8935 60.0794 27.7554 60.0869 28.6299C60.1289 33.0059 59.456 39.0999 56.005 43.2839C55.8434 43.4781 55.6186 43.6092 55.3699 43.6539C53.7082 43.9544 52.0236 44.1116 50.3349 44.1239Z" fill="white"/>
<path d="M49.2199 43.9629C49.3831 43.3775 49.7708 42.8802 50.2987 42.5791C50.8266 42.2779 51.452 42.1974 52.0389 42.3549C52.1586 42.3883 52.2753 42.4314 52.3879 42.4839L56.2459 38.9729L58.9289 40.7809L53.411 45.6639C53.1621 46.1134 52.7698 46.4667 52.2968 46.6674C51.8237 46.868 51.2971 46.9045 50.8009 46.7709C50.5119 46.6917 50.2415 46.556 50.0053 46.3716C49.769 46.1872 49.5717 45.9579 49.4247 45.6967C49.2776 45.4356 49.1839 45.1479 49.1487 44.8503C49.1136 44.5527 49.1378 44.2511 49.2199 43.9629Z" fill="#FFB8B8"/>
<path d="M55.635 44.0049C55.3845 44.0051 55.1417 43.9186 54.948 43.7599L53.427 42.5169C53.3006 42.4133 53.1993 42.2825 53.1305 42.1342C53.0618 41.9859 53.0273 41.8241 53.0298 41.6607C53.0323 41.4972 53.0717 41.3365 53.1449 41.1904C53.2182 41.0443 53.3235 40.9167 53.453 40.8169L59.835 35.9229C59.9107 35.8645 59.9602 35.7786 59.9729 35.6839C59.9857 35.5892 59.9606 35.4932 59.903 35.4169L55.964 30.2099C55.5064 29.607 55.2768 28.8617 55.316 28.1058C55.3552 27.35 55.6605 26.6323 56.1779 26.0799C56.7234 25.4919 57.4698 25.1301 58.2693 25.0662C59.0688 25.0023 59.8631 25.241 60.495 25.7349L60.52 25.7609L64.633 31.6499C65.0777 31.9987 65.4357 32.4455 65.6792 32.9555C65.9226 33.4656 66.0449 34.0249 66.0365 34.59C66.0281 35.1551 65.8892 35.7106 65.6306 36.2131C65.3721 36.7156 65.0009 37.1516 64.546 37.4869L56.281 43.7949C56.0936 43.9321 55.8672 44.0057 55.635 44.0049Z" fill="white"/>
<path d="M47.269 13.9629V11.0249L52.52 8.73192L57.526 11.0249V13.9659C57.526 14.094 57.4751 14.2169 57.3845 14.3074C57.2939 14.398 57.1711 14.4489 57.043 14.4489H47.751C47.6874 14.4488 47.6244 14.4361 47.5658 14.4116C47.5071 14.3871 47.4538 14.3512 47.409 14.306C47.3642 14.2609 47.3288 14.2073 47.3048 14.1484C47.2807 14.0896 47.2686 14.0265 47.269 13.9629Z" fill="#2F2E41"/>
<path d="M52.278 6.93191C51.9769 5.66974 52.1389 4.34143 52.7347 3.18869C53.3304 2.03594 54.3202 1.13539 55.5239 0.650907C56.7487 0.218889 58.0649 0.113598 59.3428 0.345426C60.6206 0.577254 61.816 1.1382 62.811 1.97291C64.7852 3.67897 66.1657 5.96863 66.7529 8.51091C67.3292 11.038 67.6356 13.6191 67.6669 16.2109C68.7812 16.4156 69.7974 16.9804 70.5594 17.8187C71.3215 18.6569 71.7873 19.7222 71.8852 20.8508C71.9831 21.9795 71.7077 23.109 71.1014 24.066C70.495 25.0229 69.5913 25.7543 68.5289 26.1478C67.4666 26.5413 66.3044 26.5751 65.221 26.244C64.1376 25.9129 63.1928 25.2353 62.5319 24.3152C61.871 23.3951 61.5305 22.2834 61.5626 21.151C61.5948 20.0186 61.9979 18.928 62.71 18.0469C63.6004 16.945 64.0978 15.5776 64.1234 14.1611C64.149 12.7446 63.7013 11.3601 62.8511 10.2268C62.001 9.09349 60.7971 8.2762 59.4301 7.90436C58.063 7.53251 56.611 7.62736 55.304 8.1739C53.853 8.7769 52.031 7.19991 52.278 6.93191Z" fill="#2F2E41"/>
<path d="M19.188 24.5939C15.6623 24.5708 12.1806 23.8084 8.96797 22.3559C8.77677 22.2708 8.61445 22.1318 8.50081 21.956C8.38717 21.7803 8.32712 21.5752 8.32796 21.3659V12.5769C8.32822 12.289 8.44274 12.0129 8.64635 11.8093C8.84996 11.6057 9.12601 11.4912 9.41396 11.4909H28.963C29.2509 11.4912 29.527 11.6057 29.7306 11.8093C29.9342 12.0129 30.0487 12.289 30.049 12.5769V21.3659C30.0498 21.5752 29.9898 21.7803 29.8761 21.956C29.7625 22.1318 29.6002 22.2708 29.409 22.3559C26.196 23.8086 22.714 24.571 19.188 24.5939Z" fill="white" stroke="#00838F"/>
<path d="M19.185 17.4739C19.04 17.474 18.8965 17.4451 18.763 17.3889L3.26295 10.8489C3.06304 10.7646 2.89299 10.6223 2.7747 10.4404C2.65641 10.2585 2.59531 10.0453 2.59929 9.82841C2.60327 9.61147 2.67216 9.40069 2.79704 9.22326C2.92193 9.04583 3.0971 8.90987 3.29997 8.83292L18.8 2.95193C19.0494 2.85623 19.3255 2.85623 19.575 2.95193L34.869 8.83292C35.0706 8.91054 35.2445 9.04653 35.3685 9.22352C35.4924 9.4005 35.5607 9.61044 35.5647 9.82647C35.5687 10.0425 35.5081 10.2548 35.3907 10.4362C35.2734 10.6176 35.1046 10.7599 34.906 10.8449L19.6109 17.3849C19.4764 17.443 19.3315 17.4733 19.185 17.4739Z" fill="white" stroke="#00838F"/>
<path d="M10.137 22.9539C10.9367 22.9539 11.585 22.3056 11.585 21.5059C11.585 20.7062 10.9367 20.0579 10.137 20.0579C9.33725 20.0579 8.68896 20.7062 8.68896 21.5059C8.68896 22.3056 9.33725 22.9539 10.137 22.9539Z" fill="#00838F"/>
<path d="M10.258 21.5009C10.2896 21.5009 10.321 21.4947 10.3502 21.4826C10.3794 21.4705 10.406 21.4527 10.4284 21.4303C10.4508 21.4079 10.4685 21.3814 10.4806 21.3521C10.4927 21.3229 10.499 21.2916 10.499 21.2599V13.1839L18.459 10.2839C18.4907 10.2844 18.5222 10.2786 18.5517 10.2669C18.5811 10.2552 18.608 10.2378 18.6308 10.2157C18.6535 10.1936 18.6717 10.1672 18.6843 10.1381C18.6968 10.1089 18.7035 10.0776 18.704 10.0459C18.7044 10.0142 18.6986 9.98271 18.6869 9.95323C18.6752 9.92376 18.6578 9.89687 18.6357 9.87411C18.6136 9.85136 18.5872 9.83319 18.5581 9.82063C18.529 9.80807 18.4977 9.80138 18.466 9.80092L10.506 12.7009C10.4419 12.6994 10.3782 12.711 10.3187 12.7349C10.2592 12.7588 10.2052 12.7945 10.16 12.8399C10.1142 12.8847 10.0779 12.9382 10.0531 12.9973C10.0284 13.0564 10.0158 13.1199 10.016 13.1839V21.2579C10.0157 21.2898 10.0218 21.3214 10.0338 21.351C10.0459 21.3805 10.0637 21.4074 10.0862 21.43C10.1087 21.4526 10.1355 21.4705 10.165 21.4827C10.1944 21.4948 10.2261 21.501 10.258 21.5009Z" fill="#00838F"/>
</svg>
