<svg width="145" height="245" viewBox="0 0 145 245" fill="none" xmlns="http://www.w3.org/2000/svg">
<path d="M110.054 93.3381L106.822 158.265L-55.8428 150.171C-74.3761 149.248 -88.7303 133.934 -87.8397 116.034C-86.9491 98.1346 -71.1451 84.3211 -52.6112 85.244L110.054 93.3381Z" fill="#F2F2F2"/>
<path d="M110.841 157.963C110.808 158.625 110.513 159.247 110.022 159.692C109.53 160.137 108.882 160.369 108.22 160.336L-58.8395 152.023C-67.913 151.572 -76.4354 147.534 -82.532 140.799C-88.6286 134.064 -91.8 125.183 -91.3484 116.109C-90.8968 107.036 -86.8593 98.5133 -80.1241 92.4167C-73.3889 86.3201 -64.5077 83.1487 -55.4342 83.6003L111.628 91.9167C112.285 91.9575 112.899 92.2554 113.337 92.7458C113.775 93.2362 114.003 93.8796 113.97 94.5366C113.937 95.1936 113.647 95.8112 113.162 96.2556C112.677 96.7 112.037 96.9354 111.379 96.9107L-55.6856 88.5974C-59.5429 88.3704 -63.4071 88.9098 -67.0548 90.1845C-70.7025 91.4592 -74.0615 93.444 -76.9379 96.0241C-79.8143 98.6043 -82.151 101.729 -83.8131 105.217C-85.4752 108.705 -86.4297 112.488 -86.6216 116.348C-86.8135 120.207 -86.2389 124.066 -84.931 127.702C-83.6231 131.338 -81.6079 134.679 -79.0016 137.531C-76.3953 140.384 -73.2497 142.692 -69.7464 144.322C-66.2431 145.953 -62.4516 146.873 -58.5907 147.029L108.471 155.345C109.133 155.378 109.755 155.672 110.2 156.164C110.645 156.655 110.877 157.304 110.844 157.966L110.841 157.963Z" fill="#00838F"/>
<path d="M109.309 108.322L-65.495 99.6204C-65.5608 99.6176 -65.6254 99.6017 -65.6851 99.5738C-65.7448 99.5458 -65.7983 99.5063 -65.8427 99.4576C-65.8871 99.4089 -65.9214 99.3519 -65.9437 99.2899C-65.966 99.2279 -65.9758 99.1621 -65.9725 99.0963C-65.9693 99.0305 -65.9531 98.9659 -65.9248 98.9064C-65.8966 98.8469 -65.8568 98.7935 -65.8078 98.7494C-65.7589 98.7053 -65.7017 98.6713 -65.6396 98.6493C-65.5774 98.6274 -65.5116 98.618 -65.4458 98.6216L109.358 107.324C109.49 107.331 109.614 107.39 109.702 107.488C109.791 107.586 109.837 107.716 109.83 107.848C109.824 107.979 109.765 108.104 109.668 108.193C109.57 108.282 109.441 108.328 109.309 108.322Z" fill="#CCCCCC"/>
<path d="M108.716 120.307L-66.0878 111.605C-66.1536 111.602 -66.2183 111.586 -66.2779 111.559C-66.3376 111.531 -66.3912 111.491 -66.4356 111.442C-66.48 111.394 -66.5143 111.337 -66.5366 111.275C-66.5589 111.213 -66.5687 111.147 -66.5654 111.081C-66.5622 111.015 -66.5459 110.951 -66.5177 110.891C-66.4894 110.832 -66.4497 110.778 -66.4007 110.734C-66.3518 110.69 -66.2946 110.656 -66.2324 110.634C-66.1703 110.612 -66.1045 110.603 -66.0387 110.606L108.765 119.314C108.896 119.321 109.02 119.38 109.109 119.479C109.197 119.577 109.243 119.706 109.237 119.838C109.23 119.97 109.172 120.094 109.074 120.183C108.976 120.272 108.847 120.319 108.715 120.313L108.716 120.307Z" fill="#CCCCCC"/>
<path d="M108.116 132.296L-66.6877 123.594C-66.7536 123.591 -66.8182 123.575 -66.8779 123.547C-66.9376 123.519 -66.9911 123.48 -67.0355 123.431C-67.0799 123.382 -67.1142 123.325 -67.1365 123.263C-67.1588 123.201 -67.1686 123.136 -67.1653 123.07C-67.1621 123.004 -67.1459 122.939 -67.1176 122.88C-67.0893 122.82 -67.0496 122.767 -67.0006 122.723C-66.9517 122.679 -66.8945 122.645 -66.8324 122.623C-66.7702 122.601 -66.7043 122.591 -66.6385 122.595L108.165 131.297C108.297 131.304 108.421 131.363 108.51 131.462C108.598 131.56 108.644 131.689 108.638 131.821C108.631 131.953 108.573 132.077 108.475 132.166C108.377 132.255 108.248 132.302 108.116 132.296Z" fill="#CCCCCC"/>
<path d="M107.52 144.282L-67.2844 135.58C-67.3502 135.577 -67.4149 135.562 -67.4745 135.534C-67.5342 135.506 -67.5878 135.466 -67.6322 135.417C-67.6766 135.369 -67.7109 135.312 -67.7332 135.25C-67.7555 135.188 -67.7653 135.122 -67.762 135.056C-67.7588 134.99 -67.7425 134.926 -67.7143 134.866C-67.686 134.807 -67.6463 134.753 -67.5973 134.709C-67.5484 134.665 -67.4912 134.631 -67.429 134.609C-67.3669 134.587 -67.301 134.578 -67.2352 134.581L107.568 143.284C107.634 143.287 107.698 143.303 107.758 143.331C107.818 143.359 107.871 143.398 107.916 143.447C107.96 143.496 107.994 143.553 108.017 143.615C108.039 143.677 108.049 143.742 108.046 143.808C108.042 143.874 108.026 143.939 107.998 143.998C107.97 144.058 107.93 144.111 107.881 144.155C107.832 144.199 107.775 144.233 107.713 144.255C107.65 144.277 107.585 144.286 107.519 144.283L107.52 144.282Z" fill="#CCCCCC"/>
</svg>
