<svg width="44" height="44" viewBox="0 0 44 44" fill="none" xmlns="http://www.w3.org/2000/svg">
<rect x="1" y="1" width="42" height="42" rx="11" fill="#074F6B"/>
<path d="M26.3286 22.8283C27.4724 21.9284 28.3072 20.6944 28.717 19.2979C29.1268 17.9014 29.0911 16.412 28.615 15.0367C28.1388 13.6614 27.2459 12.4688 26.0603 11.6246C24.8748 10.7805 23.4556 10.3269 22.0002 10.3269C20.5449 10.3269 19.1257 10.7805 17.9402 11.6246C16.7546 12.4688 15.8616 13.6614 15.3855 15.0367C14.9093 16.412 14.8737 17.9014 15.2835 19.2979C15.6933 20.6944 16.5281 21.9284 17.6719 22.8283C15.712 23.6135 14.0019 24.9159 12.7239 26.5966C11.446 28.2772 10.6481 30.2732 10.4152 32.3716C10.3984 32.5249 10.4119 32.6799 10.4549 32.8279C10.498 32.9759 10.5698 33.1139 10.6662 33.2342C10.8609 33.4771 11.1442 33.6326 11.4536 33.6667C11.763 33.7007 12.0733 33.6104 12.3161 33.4157C12.559 33.221 12.7145 32.9377 12.7486 32.6283C13.0048 30.3477 14.0922 28.2414 15.8032 26.7119C17.5141 25.1824 19.7286 24.3369 22.0236 24.3369C24.3185 24.3369 26.533 25.1824 28.244 26.7119C29.9549 28.2414 31.0424 30.3477 31.2986 32.6283C31.3303 32.915 31.4671 33.1798 31.6825 33.3715C31.898 33.5633 32.1768 33.6684 32.4652 33.6667H32.5936C32.8994 33.6315 33.1789 33.4768 33.3712 33.2364C33.5635 32.9961 33.653 32.6894 33.6202 32.3833C33.3863 30.2789 32.5841 28.2778 31.2996 26.5946C30.015 24.9113 28.2966 23.6094 26.3286 22.8283ZM22.0002 22C21.0773 22 20.175 21.7263 19.4076 21.2135C18.6402 20.7007 18.042 19.9719 17.6888 19.1192C17.3356 18.2665 17.2432 17.3281 17.4232 16.4229C17.6033 15.5177 18.0478 14.6861 18.7004 14.0335C19.3531 13.3808 20.1846 12.9364 21.0898 12.7563C21.9951 12.5763 22.9334 12.6687 23.7861 13.0219C24.6388 13.3751 25.3677 13.9732 25.8804 14.7407C26.3932 15.5081 26.6669 16.4103 26.6669 17.3333C26.6669 18.571 26.1752 19.758 25.3001 20.6331C24.4249 21.5083 23.2379 22 22.0002 22Z" fill="white"/>
<rect x="1" y="1" width="42" height="42" rx="11" stroke="#074F6B" stroke-width="2"/>
</svg>
