<svg width="31" height="31" viewBox="0 0 31 31" fill="none" xmlns="http://www.w3.org/2000/svg">
<path d="M15.4225 1.92782C19.1456 1.92782 22.1699 4.95208 22.1699 8.67517C22.1699 12.3983 19.1456 15.4225 15.4225 15.4225C11.6994 15.4225 8.67517 12.3983 8.67517 8.67517C8.67517 4.95208 11.6994 1.92782 15.4225 1.92782ZM23.1338 21.206C26.3207 21.206 28.9172 23.8025 28.9172 26.9894V28.9172H1.92782V26.9894C1.92782 23.8025 4.52434 21.206 7.71126 21.206C12.832 21.206 11.7657 22.1699 15.4225 22.1699C19.0914 22.1699 18.007 21.206 23.1338 21.206ZM15.4225 0C10.6331 0 6.74735 3.88575 6.74735 8.67517C6.74735 13.4646 10.6331 17.3503 15.4225 17.3503C20.2119 17.3503 24.0977 13.4646 24.0977 8.67517C24.0977 3.88575 20.2119 0 15.4225 0ZM23.1338 19.2782C17.5672 19.2782 18.8564 20.2421 15.4225 20.2421C12.0007 20.2421 13.2718 19.2782 7.71126 19.2782C3.45199 19.2782 0 22.7301 0 26.9894V28.9172C0 29.9836 0.861492 30.845 1.92782 30.845H28.9172C29.9836 30.845 30.845 29.9836 30.845 28.9172V26.9894C30.845 22.7301 27.3931 19.2782 23.1338 19.2782Z" fill="white"/>
</svg>
