<svg width="24" height="23" viewBox="0 0 24 23" fill="none" xmlns="http://www.w3.org/2000/svg">
<g filter="url(#filter0_ddd_60_1384)">
<path d="M21.7099 19.29L17.9999 15.61C19.44 13.8144 20.1374 11.5353 19.9487 9.2413C19.76 6.9473 18.6996 4.81278 16.9854 3.27664C15.2713 1.7405 13.0337 0.919506 10.7328 0.982466C8.43194 1.04543 6.24263 1.98756 4.61505 3.61514C2.98747 5.24272 2.04534 7.43203 1.98237 9.73292C1.91941 12.0338 2.74041 14.2714 4.27655 15.9855C5.81269 17.6997 7.94721 18.7601 10.2412 18.9488C12.5352 19.1375 14.8143 18.4401 16.6099 17L20.2899 20.68C20.3829 20.7737 20.4935 20.8481 20.6153 20.8989C20.7372 20.9497 20.8679 20.9758 20.9999 20.9758C21.1319 20.9758 21.2626 20.9497 21.3845 20.8989C21.5063 20.8481 21.6169 20.7737 21.7099 20.68C21.8901 20.4935 21.9909 20.2443 21.9909 19.985C21.9909 19.7257 21.8901 19.4765 21.7099 19.29ZM10.9999 17C9.61544 17 8.26206 16.5895 7.11091 15.8203C5.95977 15.0511 5.06256 13.9579 4.53275 12.6788C4.00293 11.3997 3.86431 9.99223 4.13441 8.63436C4.4045 7.2765 5.07119 6.02922 6.05016 5.05025C7.02912 4.07128 8.27641 3.4046 9.63427 3.1345C10.9921 2.8644 12.3996 3.00303 13.6787 3.53284C14.9578 4.06265 16.051 4.95986 16.8202 6.111C17.5894 7.26215 17.9999 8.61553 17.9999 10C17.9999 11.8565 17.2624 13.637 15.9497 14.9497C14.6369 16.2625 12.8564 17 10.9999 17Z" fill="#181B1A"/>
</g>
<defs>
<filter id="filter0_ddd_60_1384" x="-2.021" y="0.979095" width="28.0117" height="27.9967" filterUnits="userSpaceOnUse" color-interpolation-filters="sRGB">
<feFlood flood-opacity="0" result="BackgroundImageFix"/>
<feColorMatrix in="SourceAlpha" type="matrix" values="0 0 0 0 0 0 0 0 0 0 0 0 0 0 0 0 0 0 127 0" result="hardAlpha"/>
<feOffset dy="4"/>
<feGaussianBlur stdDeviation="2"/>
<feComposite in2="hardAlpha" operator="out"/>
<feColorMatrix type="matrix" values="0 0 0 0 0 0 0 0 0 0 0 0 0 0 0 0 0 0 0.25 0"/>
<feBlend mode="normal" in2="BackgroundImageFix" result="effect1_dropShadow_60_1384"/>
<feColorMatrix in="SourceAlpha" type="matrix" values="0 0 0 0 0 0 0 0 0 0 0 0 0 0 0 0 0 0 127 0" result="hardAlpha"/>
<feOffset dy="4"/>
<feGaussianBlur stdDeviation="2"/>
<feComposite in2="hardAlpha" operator="out"/>
<feColorMatrix type="matrix" values="0 0 0 0 0 0 0 0 0 0 0 0 0 0 0 0 0 0 0.25 0"/>
<feBlend mode="normal" in2="effect1_dropShadow_60_1384" result="effect2_dropShadow_60_1384"/>
<feColorMatrix in="SourceAlpha" type="matrix" values="0 0 0 0 0 0 0 0 0 0 0 0 0 0 0 0 0 0 127 0" result="hardAlpha"/>
<feOffset dy="4"/>
<feGaussianBlur stdDeviation="2"/>
<feComposite in2="hardAlpha" operator="out"/>
<feColorMatrix type="matrix" values="0 0 0 0 0 0 0 0 0 0 0 0 0 0 0 0 0 0 0.25 0"/>
<feBlend mode="normal" in2="effect2_dropShadow_60_1384" result="effect3_dropShadow_60_1384"/>
<feBlend mode="normal" in="SourceGraphic" in2="effect3_dropShadow_60_1384" result="shape"/>
</filter>
</defs>
</svg>
