<svg width="36" height="22" viewBox="0 0 36 22" fill="none" xmlns="http://www.w3.org/2000/svg">
<path d="M34.434 5.09723L19.5278 0.244263C18.5259 -0.0814209 17.4746 -0.0814209 16.4728 0.244263L1.56656 5.09723C0.615375 5.40706 0 6.25213 0 7.25014C0 8.24815 0.615375 9.09323 1.566 9.40305L3.23719 9.9468C3.05156 10.2968 2.91431 10.6735 2.82487 11.0683C2.22356 11.3617 1.8 11.9694 1.8 12.6876C1.8 13.4087 2.22581 14.0198 2.83106 14.3115L1.81575 20.6473C1.72519 21.2132 2.03569 21.7501 2.45362 21.7501H4.74581C5.16375 21.7501 5.47481 21.2132 5.38369 20.6473L4.36894 14.3115C4.97419 14.0198 5.4 13.4087 5.4 12.6876C5.4 12.0872 5.09119 11.5809 4.64456 11.2507C4.72837 10.9867 4.85831 10.7488 5.01412 10.5251L8.02181 11.5044L7.2 18.1251C7.2 20.1274 12.0352 21.7501 18 21.7501C23.9648 21.7501 28.8 20.1274 28.8 18.1251L27.9782 11.5044L34.434 9.40248C35.3846 9.09323 36 8.24815 36 7.25014C36 6.25213 35.3846 5.40706 34.434 5.09723ZM26.9708 18.0039C26.3655 18.6457 23.2897 19.9376 18 19.9376C12.7102 19.9376 9.6345 18.6457 9.02925 18.0039L9.76556 12.072L16.4728 14.2555C16.6191 14.303 17.9196 14.7782 19.5278 14.2555L26.235 12.072L26.9708 18.0039ZM33.8783 7.67948L18.972 12.5324C18.3358 12.7397 17.6642 12.7397 17.028 12.5324L7.14656 9.31526L18.1654 7.23428C18.6542 7.14252 18.9759 6.66901 18.8842 6.1768C18.7931 5.68403 18.3127 5.36174 17.8346 5.4535L6.372 7.61717C5.6745 7.74858 5.04956 8.05047 4.51125 8.45715L2.12119 7.67891C1.67962 7.53448 1.70156 6.95731 2.12119 6.8208L17.0274 1.96784C17.8768 1.69143 18.5934 1.84493 18.9714 1.96784L33.8777 6.8208C34.2934 6.95618 34.3226 7.53448 33.8783 7.67948Z" fill="white"/>
</svg>
