<svg width="32" height="31" viewBox="0 0 32 31" fill="none" xmlns="http://www.w3.org/2000/svg">
<path d="M15.7944 0.0273438C12.7672 0.0273438 9.8079 0.925028 7.29084 2.60687C4.77378 4.28872 2.81199 6.67919 1.65351 9.476C0.495037 12.2728 0.191925 15.3503 0.78251 18.3194C1.3731 21.2885 2.83086 24.0157 4.97144 26.1563C7.11203 28.2969 9.83928 29.7547 12.8084 30.3452C15.7774 30.9358 18.855 30.6327 21.6518 29.4742C24.4486 28.3158 26.839 26.354 28.5209 23.8369C30.2027 21.3198 31.1004 18.3606 31.1004 15.3333C31.0999 11.2741 29.4871 7.38127 26.6168 4.51096C23.7465 1.64064 19.8537 0.0278741 15.7944 0.0273438ZM22.7834 11.9613C22.7901 12.112 22.7934 12.2633 22.7934 12.4153C22.803 13.7312 22.5509 15.0359 22.0517 16.2535C21.5526 17.4711 20.8163 18.5773 19.8858 19.5078C18.9553 20.4383 17.8491 21.1745 16.6315 21.6736C15.414 22.1728 14.1093 22.4249 12.7934 22.4153C10.8841 22.4172 9.01471 21.8694 7.40843 20.8373C7.68656 20.8701 7.96636 20.8864 8.24641 20.8863C9.82781 20.8898 11.3645 20.3615 12.6094 19.3863C11.8763 19.3725 11.1658 19.1299 10.5773 18.6924C9.98884 18.2549 9.55182 17.6444 9.3274 16.9464C9.85401 17.0482 10.397 17.0277 10.9144 16.8863C10.1194 16.7257 9.40442 16.295 8.89079 15.6672C8.37716 15.0395 8.0965 14.2534 8.09641 13.4423C8.09641 13.4263 8.09641 13.4123 8.09641 13.3973C8.58402 13.6688 9.12961 13.8193 9.68742 13.8363C8.94352 13.3397 8.4169 12.5781 8.21476 11.7068C8.01263 10.8354 8.15016 9.91982 8.5994 9.14635C9.48162 10.2319 10.5823 11.1197 11.83 11.7521C13.0776 12.3845 14.4444 12.7475 15.8414 12.8173C15.6667 12.0642 15.7451 11.2745 16.0646 10.5704C16.384 9.86639 16.9267 9.28731 17.6085 8.92287C18.2904 8.55842 19.0734 8.42894 19.8363 8.55449C20.5991 8.68004 21.2993 9.05361 21.8284 9.61734C22.6152 9.46203 23.3697 9.17355 24.0594 8.76434C23.7969 9.57783 23.2479 10.2683 22.5144 10.7073C23.2106 10.625 23.8905 10.4386 24.5314 10.1543C24.0601 10.86 23.4668 11.4759 22.7794 11.9733L22.7834 11.9613Z" fill="white"/>
</svg>
