<svg width="83" height="55" viewBox="0 0 83 55" fill="none" xmlns="http://www.w3.org/2000/svg">
<path d="M41.4843 54.7576C32.6677 54.6988 23.9616 52.7911 15.9283 49.1576C15.4502 48.9443 15.0444 48.5966 14.7603 48.1568C14.4762 47.717 14.3262 47.2041 14.3283 46.6806V24.7076C14.3291 23.9875 14.6155 23.2971 15.1247 22.7879C15.6339 22.2788 16.3242 21.9924 17.0443 21.9916H65.9243C66.6444 21.9924 67.3348 22.2788 67.844 22.7879C68.3531 23.2971 68.6395 23.9875 68.6403 24.7076V46.6846C68.6425 47.2081 68.4924 47.721 68.2083 48.1608C67.9243 48.6005 67.5184 48.9483 67.0403 49.1616C59.0068 52.7937 50.3006 54.7001 41.4843 54.7576Z" fill="#287A9A"/>
<path d="M41.4783 36.9535C41.1161 36.9538 40.7574 36.8817 40.4233 36.7415L1.66134 20.3875C1.16123 20.1768 0.735699 19.8211 0.439692 19.3663C0.143685 18.9115 -0.00923633 18.3784 0.000665833 17.8358C0.010568 17.2932 0.182859 16.7661 0.495264 16.3224C0.80767 15.8786 1.24586 15.5387 1.75332 15.3465L40.5153 0.641452C41.1392 0.40219 41.8295 0.40219 42.4533 0.641452L80.6963 15.3465C81.2007 15.5405 81.6357 15.8806 81.9457 16.3232C82.2557 16.7658 82.4267 17.2908 82.4367 17.8311C82.4467 18.3715 82.2952 18.9024 82.0018 19.3562C81.7083 19.81 81.2862 20.1659 80.7893 20.3785L42.5463 36.7325C42.2086 36.8761 41.8453 36.9499 41.4783 36.9495V36.9535Z" fill="#287A9A"/>
<path d="M18.8553 50.6565C20.8552 50.6565 22.4763 49.0353 22.4763 47.0355C22.4763 45.0356 20.8552 43.4145 18.8553 43.4145C16.8555 43.4145 15.2343 45.0356 15.2343 47.0355C15.2343 49.0353 16.8555 50.6565 18.8553 50.6565Z" fill="white"/>
<path opacity="0.2" d="M80.9223 18.0614L42.6793 34.4145C42.3809 34.5412 42.06 34.6065 41.7358 34.6065C41.4116 34.6065 41.0907 34.5412 40.7923 34.4145L2.03034 18.0614C1.54368 17.8611 1.13764 17.5043 0.876347 17.0475C0.705474 17.3438 0.599572 17.6731 0.565708 18.0135C0.531845 18.3539 0.570796 18.6976 0.679936 19.0218C0.789075 19.346 0.96591 19.6433 1.19873 19.8939C1.43156 20.1445 1.71504 20.3428 2.03034 20.4754L40.7923 36.8284C41.0907 36.9552 41.4116 37.0205 41.7358 37.0205C42.06 37.0205 42.3809 36.9552 42.6793 36.8284L80.9223 20.4754C81.2361 20.3416 81.518 20.1427 81.7493 19.8919C81.9806 19.6411 82.156 19.3442 82.264 19.0206C82.372 18.697 82.4102 18.3541 82.3759 18.0147C82.3417 17.6752 82.2358 17.347 82.0653 17.0515C81.8061 17.5049 81.4042 17.8599 80.9223 18.0614Z" fill="black"/>
<path d="M19.1584 47.0244C19.3175 47.0244 19.4701 46.9612 19.5826 46.8487C19.6951 46.7362 19.7584 46.5836 19.7584 46.4245V26.2245L39.6584 18.9734C39.8184 18.9758 39.9728 18.9145 40.0877 18.8031C40.2026 18.6916 40.2685 18.539 40.2708 18.379C40.2732 18.2189 40.212 18.0644 40.1005 17.9496C39.989 17.8347 39.8364 17.7688 39.6764 17.7664L19.7763 25.0175C19.6162 25.0138 19.4569 25.0426 19.3083 25.1023C19.1596 25.1619 19.0245 25.2511 18.9113 25.3645C18.797 25.4765 18.7062 25.6104 18.6444 25.7581C18.5826 25.9058 18.551 26.0643 18.5514 26.2245V46.4174C18.5504 46.4974 18.5655 46.5768 18.5956 46.6508C18.6258 46.7249 18.6705 46.7922 18.727 46.8488C18.7836 46.9053 18.8509 46.95 18.925 46.9802C18.999 47.0103 19.0784 47.0254 19.1584 47.0244Z" fill="white"/>
</svg>
