<svg width="83" height="55" viewBox="0 0 83 55" fill="none" xmlns="http://www.w3.org/2000/svg">
<path d="M41.4844 54.7576C32.6678 54.6988 23.9616 52.7911 15.9284 49.1576C15.4502 48.9443 15.0444 48.5966 14.7604 48.1568C14.4763 47.717 14.3262 47.2041 14.3284 46.6806V24.7076C14.3292 23.9875 14.6156 23.2971 15.1247 22.7879C15.6339 22.2788 16.3243 21.9924 17.0444 21.9916H65.9244C66.6445 21.9924 67.3348 22.2788 67.844 22.7879C68.3532 23.2971 68.6396 23.9875 68.6404 24.7076V46.6846C68.6425 47.2081 68.4925 47.721 68.2084 48.1608C67.9243 48.6006 67.5185 48.9483 67.0404 49.1616V49.1616C59.0068 52.7937 50.3007 54.7001 41.4844 54.7576Z" fill="#00BCD4"/>
<path d="M41.4784 36.9535C41.1161 36.9538 40.7574 36.8817 40.4234 36.7415L1.66137 20.3875C1.16126 20.1768 0.735729 19.8212 0.439722 19.3663C0.143715 18.9115 -0.00920582 18.3784 0.00069635 17.8358C0.0105985 17.2933 0.182889 16.7661 0.495295 16.3224C0.8077 15.8787 1.24589 15.5387 1.75335 15.3465L40.5153 0.641482C41.1392 0.402221 41.8295 0.402221 42.4534 0.641482L80.6963 15.3465C81.2007 15.5405 81.6357 15.8806 81.9457 16.3232C82.2558 16.7658 82.4267 17.2909 82.4367 17.8312C82.4467 18.3715 82.2952 18.9025 82.0018 19.3562C81.7083 19.81 81.2862 20.1659 80.7894 20.3785L42.5464 36.7325C42.2086 36.8762 41.8454 36.95 41.4784 36.9495V36.9535Z" fill="#00BCD4"/>
<path d="M18.8554 50.6565C20.8552 50.6565 22.4764 49.0353 22.4764 47.0355C22.4764 45.0357 20.8552 43.4145 18.8554 43.4145C16.8556 43.4145 15.2344 45.0357 15.2344 47.0355C15.2344 49.0353 16.8556 50.6565 18.8554 50.6565Z" fill="white"/>
<path opacity="0.2" d="M80.9224 18.0615L42.6794 34.4145C42.381 34.5412 42.0601 34.6065 41.7359 34.6065C41.4117 34.6065 41.0908 34.5412 40.7924 34.4145L2.03043 18.0615C1.54377 17.8611 1.13773 17.5043 0.876438 17.0475C0.705565 17.3438 0.599664 17.6731 0.5658 18.0135C0.531936 18.3539 0.570888 18.6976 0.680027 19.0219C0.789167 19.3461 0.966001 19.6433 1.19883 19.894C1.43165 20.1446 1.71513 20.3428 2.03043 20.4755L40.7924 36.8285C41.0908 36.9552 41.4117 37.0205 41.7359 37.0205C42.0601 37.0205 42.381 36.9552 42.6794 36.8285L80.9224 20.4755C81.2362 20.3416 81.5181 20.1428 81.7494 19.892C81.9806 19.6412 82.1561 19.3442 82.2641 19.0206C82.3721 18.697 82.4103 18.3541 82.376 18.0147C82.3418 17.6753 82.2359 17.347 82.0654 17.0515C81.8061 17.5049 81.4043 17.86 80.9224 18.0615V18.0615Z" fill="black"/>
<path d="M19.1583 47.0245C19.3174 47.0245 19.47 46.9613 19.5826 46.8487C19.6951 46.7362 19.7583 46.5836 19.7583 46.4245V26.2245L39.6583 18.9735C39.8184 18.9759 39.9728 18.9146 40.0877 18.8031C40.2025 18.6916 40.2684 18.539 40.2708 18.379C40.2732 18.2189 40.2119 18.0645 40.1004 17.9496C39.9889 17.8347 39.8364 17.7689 39.6763 17.7665L19.7763 25.0175C19.6161 25.0138 19.4569 25.0427 19.3082 25.1023C19.1595 25.1619 19.0245 25.2511 18.9113 25.3645C18.7969 25.4766 18.7062 25.6104 18.6444 25.7581C18.5825 25.9058 18.5509 26.0644 18.5513 26.2245V46.4175C18.5504 46.4975 18.5654 46.5768 18.5956 46.6509C18.6258 46.7249 18.6704 46.7922 18.727 46.8488C18.7836 46.9053 18.8508 46.95 18.9249 46.9802C18.999 47.0104 19.0783 47.0254 19.1583 47.0245V47.0245Z" fill="white"/>
</svg>
