<svg width="89" height="43" viewBox="0 0 89 43" fill="none" xmlns="http://www.w3.org/2000/svg">
<path d="M5.85221 15.082V19.982H12.4322V23.09H5.85221V28.27H13.2722V31.462H1.93221V11.89H13.2722V15.082H5.85221ZM15.8266 23.65C15.8266 22.082 16.1346 20.6913 16.7506 19.478C17.3852 18.2647 18.2439 17.3313 19.3266 16.678C20.4092 16.0247 21.6132 15.698 22.9386 15.698C23.9466 15.698 24.9079 15.922 25.8226 16.37C26.7372 16.7993 27.4652 17.378 28.0066 18.106V10.742H31.9826V31.462H28.0066V29.166C27.5212 29.9313 26.8399 30.5473 25.9626 31.014C25.0852 31.4807 24.0679 31.714 22.9106 31.714C21.6039 31.714 20.4092 31.378 19.3266 30.706C18.2439 30.034 17.3852 29.0913 16.7506 27.878C16.1346 26.646 15.8266 25.2367 15.8266 23.65ZM28.0346 23.706C28.0346 22.754 27.8479 21.942 27.4746 21.27C27.1012 20.5793 26.5972 20.0567 25.9626 19.702C25.3279 19.3287 24.6466 19.142 23.9186 19.142C23.1906 19.142 22.5186 19.3193 21.9026 19.674C21.2866 20.0287 20.7826 20.5513 20.3906 21.242C20.0172 21.914 19.8306 22.7167 19.8306 23.65C19.8306 24.5833 20.0172 25.4047 20.3906 26.114C20.7826 26.8047 21.2866 27.3367 21.9026 27.71C22.5372 28.0833 23.2092 28.27 23.9186 28.27C24.6466 28.27 25.3279 28.0927 25.9626 27.738C26.5972 27.3647 27.1012 26.842 27.4746 26.17C27.8479 25.4793 28.0346 24.658 28.0346 23.706ZM50.4551 15.95V31.462H46.5071V29.502C46.0031 30.174 45.3405 30.706 44.5191 31.098C43.7165 31.4713 42.8391 31.658 41.8871 31.658C40.6738 31.658 39.6005 31.406 38.6671 30.902C37.7338 30.3793 36.9965 29.6233 36.4551 28.634C35.9325 27.626 35.6711 26.4313 35.6711 25.05V15.95H39.5911V24.49C39.5911 25.722 39.8991 26.674 40.5151 27.346C41.1311 27.9993 41.9711 28.326 43.0351 28.326C44.1178 28.326 44.9671 27.9993 45.5831 27.346C46.1991 26.674 46.5071 25.722 46.5071 24.49V15.95H50.4551ZM58.1868 11.918V24.014C58.1868 25.3393 58.5322 26.3567 59.2228 27.066C59.9135 27.7567 60.8842 28.102 62.1348 28.102C63.4042 28.102 64.3842 27.7567 65.0748 27.066C65.7655 26.3567 66.1108 25.3393 66.1108 24.014V11.918H70.0588V23.986C70.0588 25.6473 69.6948 27.0567 68.9668 28.214C68.2575 29.3527 67.2962 30.2113 66.0828 30.79C64.8882 31.3687 63.5535 31.658 62.0788 31.658C60.6228 31.658 59.2975 31.3687 58.1028 30.79C56.9268 30.2113 55.9935 29.3527 55.3028 28.214C54.6122 27.0567 54.2668 25.6473 54.2668 23.986V11.918H58.1868ZM80.5943 31.658C79.2316 31.658 77.9996 31.4247 76.8983 30.958C75.8156 30.4913 74.9569 29.8193 74.3223 28.942C73.6876 28.0647 73.3609 27.0287 73.3423 25.834H77.5423C77.5983 26.6367 77.8783 27.2713 78.3823 27.738C78.9049 28.2047 79.6143 28.438 80.5103 28.438C81.4249 28.438 82.1436 28.2233 82.6663 27.794C83.1889 27.346 83.4503 26.7673 83.4503 26.058C83.4503 25.4793 83.2729 25.0033 82.9183 24.63C82.5636 24.2567 82.1156 23.9673 81.5743 23.762C81.0516 23.538 80.3236 23.2953 79.3903 23.034C78.1209 22.6607 77.0849 22.2967 76.2823 21.942C75.4983 21.5687 74.8169 21.018 74.2383 20.29C73.6783 19.5433 73.3983 18.554 73.3983 17.322C73.3983 16.1647 73.6876 15.1567 74.2663 14.298C74.8449 13.4393 75.6569 12.786 76.7023 12.338C77.7476 11.8713 78.9423 11.638 80.2863 11.638C82.3023 11.638 83.9356 12.1327 85.1863 13.122C86.4556 14.0927 87.1556 15.4553 87.2863 17.21H82.9743C82.9369 16.538 82.6476 15.9873 82.1063 15.558C81.5836 15.11 80.8836 14.886 80.0063 14.886C79.2409 14.886 78.6249 15.082 78.1583 15.474C77.7103 15.866 77.4863 16.4353 77.4863 17.182C77.4863 17.7047 77.6543 18.1433 77.9903 18.498C78.3449 18.834 78.7743 19.114 79.2783 19.338C79.8009 19.5433 80.5289 19.786 81.4623 20.066C82.7316 20.4393 83.7676 20.8127 84.5703 21.186C85.3729 21.5593 86.0636 22.1193 86.6423 22.866C87.2209 23.6127 87.5103 24.5927 87.5103 25.806C87.5103 26.8513 87.2396 27.822 86.6983 28.718C86.1569 29.614 85.3636 30.3327 84.3183 30.874C83.2729 31.3967 82.0316 31.658 80.5943 31.658Z" fill="#074F6B"/>
</svg>
