<svg width="31" height="32" viewBox="0 0 31 32" fill="none" xmlns="http://www.w3.org/2000/svg">
<path d="M18.4824 16.0843C18.4824 16.6666 18.3097 17.2359 17.9861 17.72C17.6626 18.2042 17.2028 18.5815 16.6648 18.8043C16.1268 19.0271 15.5348 19.0854 14.9637 18.9717C14.3926 18.858 13.868 18.5775 13.4563 18.1657C13.0446 17.7539 12.7643 17.2292 12.6508 16.6581C12.5373 16.0869 12.5958 15.4949 12.8188 14.957C13.0417 14.4191 13.4192 13.9594 13.9035 13.636C14.3878 13.3126 14.957 13.1401 15.5394 13.1403C16.3201 13.1403 17.069 13.4505 17.6211 14.0026C18.1732 14.5547 18.4834 15.3035 18.4834 16.0843H18.4824Z" fill="white"/>
<path d="M22.4233 10.8763C22.2764 10.4954 22.0515 10.1496 21.7628 9.8609C21.4742 9.57224 21.1283 9.34721 20.7474 9.20032C20.2219 9.00712 19.6672 8.90565 19.1074 8.90033C18.1764 8.85833 17.8964 8.84833 15.5394 8.84833C13.1824 8.84833 12.9024 8.85732 11.9704 8.89932C11.4106 8.90473 10.8559 9.00619 10.3304 9.19931C9.94954 9.34626 9.60365 9.5713 9.315 9.85995C9.02635 10.1486 8.8013 10.4945 8.65436 10.8753C8.46116 11.4008 8.3597 11.9555 8.35437 12.5153C8.31237 13.4463 8.30237 13.7253 8.30237 16.0843C8.30237 18.4433 8.31137 18.7213 8.35437 19.6523C8.35966 20.2121 8.46112 20.7669 8.65436 21.2923C8.80125 21.6732 9.02628 22.0191 9.31494 22.3078C9.6036 22.5964 9.9495 22.8214 10.3304 22.9683C10.8558 23.1616 11.4106 23.2631 11.9704 23.2683C12.9014 23.3103 13.1804 23.3193 15.5384 23.3193C17.8964 23.3193 18.1764 23.3103 19.1074 23.2683C19.6672 23.2631 20.222 23.1616 20.7474 22.9683C21.1283 22.8214 21.4742 22.5964 21.7628 22.3078C22.0515 22.0191 22.2764 21.6732 22.4233 21.2923C22.6164 20.7669 22.718 20.2121 22.7234 19.6523C22.7654 18.7213 22.7744 18.4413 22.7744 16.0843C22.7744 13.7273 22.7654 13.4473 22.7234 12.5153C22.7182 11.9555 22.6167 11.4007 22.4233 10.8753V10.8763ZM15.5394 20.6193C14.6424 20.6193 13.7656 20.3534 13.0198 19.855C12.2741 19.3567 11.6928 18.6485 11.3495 17.8198C11.0063 16.9911 10.9165 16.0793 11.0915 15.1996C11.2665 14.3199 11.6984 13.5118 12.3326 12.8776C12.9669 12.2434 13.775 11.8115 14.6547 11.6365C15.5344 11.4615 16.4462 11.5513 17.2748 11.8945C18.1035 12.2378 18.8117 12.819 19.3101 13.5648C19.8084 14.3106 20.0743 15.1874 20.0743 16.0843C20.0743 17.2871 19.5966 18.4406 18.7461 19.291C17.8956 20.1415 16.7421 20.6193 15.5394 20.6193ZM20.2534 12.4303C20.0437 12.4303 19.8388 12.3682 19.6645 12.2517C19.4902 12.1352 19.3543 11.9697 19.274 11.776C19.1938 11.5823 19.1728 11.3691 19.2137 11.1635C19.2546 10.9579 19.3556 10.769 19.5038 10.6208C19.6521 10.4725 19.841 10.3716 20.0466 10.3307C20.2522 10.2898 20.4653 10.3108 20.659 10.391C20.8527 10.4713 21.0182 10.6071 21.1347 10.7814C21.2512 10.9557 21.3134 11.1607 21.3134 11.3703C21.3134 11.6515 21.2017 11.9211 21.0029 12.1198C20.8041 12.3186 20.5345 12.4303 20.2534 12.4303Z" fill="white"/>
<path d="M15.5394 0.777344C12.5122 0.777344 9.55289 1.67503 7.03584 3.35687C4.51878 5.03872 2.55698 7.42919 1.39851 10.226C0.240032 13.0228 -0.0630803 16.1003 0.527505 19.0694C1.11809 22.0385 2.57586 24.7657 4.71644 26.9063C6.85702 29.0469 9.58428 30.5047 12.5534 31.0952C15.5224 31.6858 18.6 31.3827 21.3968 30.2242C24.1936 29.0658 26.584 27.104 28.2659 24.5869C29.9477 22.0698 30.8454 19.1106 30.8454 16.0833C30.8449 12.0241 29.2321 8.13127 26.3618 5.26096C23.4915 2.39064 19.5986 0.777874 15.5394 0.777344ZM24.2754 19.7073C24.2611 20.4366 24.1231 21.1582 23.8674 21.8413C23.6416 22.4251 23.2964 22.9552 22.8538 23.3978C22.4112 23.8403 21.8811 24.1855 21.2974 24.4113C20.6146 24.6669 19.8934 24.8048 19.1644 24.8194C18.2274 24.8624 17.9274 24.8723 15.5404 24.8723C13.1534 24.8723 12.8544 24.8624 11.9164 24.8194C11.1875 24.8048 10.4662 24.6669 9.78339 24.4113C9.19967 24.1855 8.66956 23.8403 8.227 23.3978C7.78444 22.9552 7.43922 22.4251 7.21342 21.8413C6.9578 21.1585 6.81983 20.4373 6.8054 19.7083C6.7624 18.7713 6.75242 18.4714 6.75242 16.0844C6.75242 13.6974 6.7624 13.3983 6.8054 12.4603C6.81973 11.7311 6.95771 11.0095 7.21342 10.3263C7.43965 9.74271 7.78516 9.2127 8.22785 8.77017C8.67055 8.32765 9.20068 7.98236 9.7844 7.75635C10.4676 7.50072 11.1891 7.36276 11.9184 7.34834C12.8554 7.30534 13.1554 7.29535 15.5424 7.29535C17.9294 7.29535 18.2284 7.30534 19.1664 7.34834C19.8957 7.36279 20.6172 7.50075 21.3004 7.75635C21.884 7.98258 22.4141 8.32809 22.8566 8.77078C23.2991 9.21348 23.6444 9.74363 23.8704 10.3273C24.1265 11.0104 24.2648 11.732 24.2794 12.4613C24.3224 13.3983 24.3324 13.6983 24.3324 16.0853C24.3324 18.4723 24.3224 18.7714 24.2794 19.7094L24.2754 19.7073Z" fill="white"/>
</svg>
