<svg width="32" height="31" viewBox="0 0 32 31" fill="none" xmlns="http://www.w3.org/2000/svg">
<path d="M16.1284 0.210205C13.1008 0.210205 10.1412 1.10797 7.6238 2.79004C5.10641 4.4721 3.14431 6.86292 1.98568 9.6601C0.827053 12.4573 0.523923 15.5352 1.11459 18.5046C1.70525 21.4741 3.16318 24.2017 5.30404 26.3426C7.4449 28.4835 10.1725 29.9414 13.142 30.532C16.1115 31.1227 19.1894 30.8196 21.9866 29.6609C24.7838 28.5023 27.1745 26.5403 28.8566 24.0229C30.5387 21.5055 31.4365 18.5458 31.4365 15.5182C31.4362 11.4583 29.8233 7.56484 26.9525 4.69409C24.0818 1.82334 20.1883 0.21047 16.1284 0.210205ZM11.6804 23.3512H7.95248V12.1352H11.6804V23.3512ZM9.82046 10.6032H9.79647C9.23261 10.6 8.69301 10.3734 8.29598 9.97302C7.89895 9.57262 7.6769 9.03109 7.67849 8.46722C7.68008 7.90335 7.90519 7.36312 8.30447 6.96497C8.70374 6.56681 9.24456 6.34326 9.80843 6.34326C10.3723 6.34326 10.9132 6.56681 11.3125 6.96497C11.7117 7.36312 11.9368 7.90335 11.9384 8.46722C11.94 9.03109 11.718 9.57262 11.3209 9.97302C10.9239 10.3734 10.3843 10.6 9.82046 10.6032ZM25.1204 23.3512H21.3925V17.3512C21.3925 15.8432 20.8524 14.8142 19.5034 14.8142C19.083 14.8166 18.6735 14.9488 18.3311 15.1927C17.9886 15.4367 17.73 15.7805 17.5905 16.1772C17.4948 16.4706 17.453 16.7789 17.4674 17.0872V23.3502H13.7395C13.7395 23.3502 13.7885 13.1862 13.7395 12.1342H17.4674V13.7222C17.8048 13.1361 18.2964 12.6536 18.8888 12.3273C19.4812 12.0009 20.1517 11.8432 20.8275 11.8712C23.2805 11.8712 25.1195 13.4712 25.1195 16.9192L25.1204 23.3512Z" fill="white"/>
</svg>
